<svg xmlns="http://www.w3.org/2000/svg" width="354.637" height="204.272" viewBox="0 0 354.637 204.272">
  <g id="Group_3149" data-name="Group 3149" transform="translate(0.016 0.018)">
    <path id="Path_508" data-name="Path 508" d="M463.13,150.258c-2.323,20.346-15.647,30.905-38.422,33.208-12.621,4.4-25.769,7.743-32.808,15.691-23.679,14.835-31.612,34.075-36.517,41.082C333.415,293.588,273.859,354.53,174.7,354.53a179.492,179.492,0,0,1-66.208-12.6c0-1.865.031-182.541.031-191.672Z" transform="translate(-108.508 -150.276)" fill="#dc853d" opacity="0.21"/>
    <path id="Path_507" data-name="Path 507" d="M391.252,124.292a24.066,24.066,0,0,1,.747,5.83c.163,20.75-10.9,31.3-31.531,33.386C350.21,167.08,339.525,169.8,333.8,176.26c-19.244,12.056-25.691,27.692-29.677,33.387C286.274,253,237.874,302.53,157.289,302.53a144.827,144.827,0,0,1-57.3-11.769c0-17.989.016-34.237.016-166.469Z" transform="translate(-100 -124.276)" fill="#dc853d"/>
  </g>
</svg>
