<svg xmlns="http://www.w3.org/2000/svg" width="375.163" height="119.05" viewBox="0 0 375.163 119.05">
  <g id="Group_3146" data-name="Group 3146" transform="translate(0.163 -693)" opacity="0.2">
    <path id="Path_608" data-name="Path 608" d="M252.5,0A251.521,251.521,0,0,1,419.433,63.05c-52.374,0-84.963-.066-206.448-.066,0-26.16-.147-37.717-.147-59.887A254.074,254.074,0,0,1,252.5,0Z" transform="translate(-213 749)" fill="#dc853d" opacity="0.45"/>
    <path id="Path_609" data-name="Path 609" d="M252.5,0a254.858,254.858,0,0,1,45.25,4.043c0,79.516.25,88.1.25,114.941-140.322,0-193.956-.089-259.8-.089A252.2,252.2,0,0,1,252.5,0Z" transform="translate(77 693)" fill="#dc853d" opacity="0.45"/>
    <path id="Path_607" data-name="Path 607" d="M252.5,0A251.458,251.458,0,0,1,439.984,83.566v35.422c-46.36,0-235.515.051-374.967.051,0-25.555-.021-13.857-.021-35.3A251.216,251.216,0,0,1,252.5,0Z" transform="translate(-65 693)" fill="#dc853d" opacity="0.45"/>
  </g>
</svg>
