<svg xmlns="http://www.w3.org/2000/svg" xmlns:xlink="http://www.w3.org/1999/xlink" width="393" height="128" viewBox="0 0 393 128">
  <defs>
    <filter id="Path_510" x="0" y="0" width="393" height="128" filterUnits="userSpaceOnUse">
      <feOffset dy="3" input="SourceAlpha"/>
      <feGaussianBlur stdDeviation="3" result="blur"/>
      <feFlood flood-color="#0166ff" flood-opacity="0.302"/>
      <feComposite operator="in" in2="blur"/>
      <feComposite in="SourceGraphic"/>
    </filter>
  </defs>
  <g id="Group_3149" data-name="Group 3149" transform="translate(9 6)">
    <g id="Group_3140" data-name="Group 3140">
      <g transform="matrix(1, 0, 0, 1, -9, -6)" filter="url(#Path_510)">
        <path id="Path_510-2" data-name="Path 510" d="M0,0H375V68.559a466.151,466.151,0,0,0-81.705,4C251.586,78.476,137.27,110,81.395,110,19.774,110,0,68.559,0,68.559Z" transform="translate(9 6)" fill="#0166ff"/>
      </g>
      <path id="Path_511" data-name="Path 511" d="M202.974,0H-.005V43.379s20.732,2.431,44.225,6.327C78.5,55.391,123.26,63.273,153.5,63.273c50.745,0,49.47-19.894,49.47-19.894Z" transform="translate(172.023 35.727)" fill="#0166ff" opacity="0.17"/>
    </g>
  </g>
</svg>
