<svg id="bold" xmlns="http://www.w3.org/2000/svg" width="29" height="29" viewBox="0 0 29 29">
  <circle id="Ellipse_91" data-name="Ellipse 91" cx="2.416" cy="2.416" r="2.416" transform="translate(3.625 6.043)" fill="#999696"/>
  <path id="Path_598" data-name="Path 598" d="M19.479,29.146a9.678,9.678,0,0,1,7.854-9.49V11.625A3.629,3.629,0,0,0,23.707,8H11.625A3.629,3.629,0,0,0,8,11.625V28.541a3.629,3.629,0,0,0,3.625,3.625H19.97A9.575,9.575,0,0,1,19.479,29.146Zm-5.751-6.429a2.177,2.177,0,0,0-3,0l-.314.314V11.625a1.21,1.21,0,0,1,1.209-1.209H23.709a1.21,1.21,0,0,1,1.209,1.209v7.781L24,18.487a2.122,2.122,0,0,0-3,0L15.25,24.24Z" transform="translate(-8 -8)" fill="#999696"/>
  <path id="Path_599" data-name="Path 599" d="M23.188,15.333a7.854,7.854,0,1,0,7.854,7.855A7.863,7.863,0,0,0,23.188,15.333ZM26.51,24.4H24.395v2.115a1.208,1.208,0,1,1-2.416,0V24.4H19.863a1.208,1.208,0,1,1,0-2.416h2.115V19.864a1.209,1.209,0,0,1,2.418,0v2.115H26.51a1.208,1.208,0,1,1,0,2.416Z" transform="translate(-2.041 -2.042)" fill="#999696"/>
</svg>
