<?xml version="1.0" encoding="UTF-8"?>
<svg xmlns="http://www.w3.org/2000/svg" xmlns:xlink="http://www.w3.org/1999/xlink" xmlns:svgjs="http://svgjs.com/svgjs" version="1.1" width="512" height="512" x="0" y="0" viewBox="0 0 60 60" style="enable-background:new 0 0 512 512" xml:space="preserve" class="">
  <g>
    <g xmlns="http://www.w3.org/2000/svg" id="Page-1" fill="none" fill-rule="evenodd">
      <g id="048---Report-Message">
        <g id="Icons" transform="translate(1)">
          <path id="Path" d="m50 30.86v14.14c0 2.7614237-2.2385763 5-5 5h-21l-14.09 8.81c-.38511133.2402052-.8702199.2525857-1.26708252.0323374-.39686261-.2202484-.64300663-.638455-.64291748-1.0923374v-7.75h-3c-1.32608245 0-2.59785201-.5267842-3.53553391-1.4644661-.93768189-.9376819-1.46446609-2.2094515-1.46446609-3.5355339v-26c0-2.7614237 2.23857625-5 5-5h21.28c-.1846777.9893614-.278402 1.9935512-.28 3-.0012841 5.7168913 3.0477914 11.0001001 7.9984437 13.8591018s11.0505831 2.8593441 16.0015563.0008982z" fill="#e3d15c" data-original="#ffdc00"/>
          <path id="Path" d="m39 33c.5 0 1-.031 1.486-.076-8.2127883-.7778106-14.4866447-7.6744618-14.486-15.924.001598-1.0064488.0953223-2.0106386.28-3h-3c-.1846777.9893614-.278402 1.9935512-.28 3 0 8.836556 7.163444 16 16 16z" fill="#fec108" data-original="#fec108"/>
          <path id="Path" d="m47 32.2v12.8c0 1.3260824-.5267842 2.597852-1.4644661 3.5355339s-2.2094515 1.4644661-3.5355339 1.4644661h3c2.7614237 0 5-2.2385763 5-5v-14.14c-.9511008.5489532-1.9564551.9980114-3 1.34z" fill="#fec108" data-original="#fec108"/>
          <path id="Path" d="m58 17c0 8.836556-7.163444 16-16 16s-16-7.163444-16-16c.001598-1.0064488.0953223-2.0106386.28-3 1.5385988-8.11600178 9.0026742-13.72657311 17.2265304-12.94878091 8.2238561.77779219 14.5037249 7.68823215 14.4934696 15.94878091z" fill="#f44335" data-original="#f44335" class=""/>
          <path id="Path" d="m42 1c-.514 0-1.021.027-1.523.075 8.2329353.75083354 14.5363309 7.65329128 14.5386671 15.9203929.0023361 8.2671016-6.2971575 15.1731207-14.5296671 15.9286071.5.046 1 .076 1.514.076 8.836556 0 16-7.163444 16-16s-7.163444-16-16-16z" fill="#c81e1e" data-original="#c81e1e" class=""/>
          <g fill="#f5f5f5">
            <circle id="Oval" cx="42" cy="26" r="2" fill="#f5f5f5" data-original="#f5f5f5"/>
            <rect id="Rectangle" height="14" rx="2" width="4" x="40" y="6" fill="#f5f5f5" data-original="#f5f5f5"/>
          </g>
        </g>
        <g id="Icons_copy" fill="#000">
          <path id="Shape" d="m43 0c-7.8375539.01626124-14.650247 5.38383764-16.5 13h-20.5c-3.31233757.0033074-5.99669262 2.6876624-6 6v26c.00330738 3.3123376 2.68766243 5.9966926 6 6h2v6.749c-.0007464.8176907.44256763 1.5713002 1.15763261 1.9679119.71506497.3966116 1.58909489.3736684 2.28236739-.0599119l13.847-8.657h20.713c3.3123376-.0033074 5.9966926-2.6876624 6-6v-13.6c6.4399141-4.0095583 9.4396437-11.8038676 7.3494453-19.0963378-2.0901985-7.29247024-8.7633436-12.31429955-16.3494453-12.3036622zm7 45c0 2.209139-1.790861 4-4 4h-21c-.1874199-.0000007-.3710679.0526682-.53.152l-14.09 8.81c-.077096.0469348-.173505.0486687-.2522388.0045363-.0787338-.0441323-.1275658-.1272776-.1277612-.2175363v-7.749c0-.5522847-.44771525-1-1-1h-3c-2.209139 0-4-1.790861-4-4v-26c0-2.209139 1.790861-4 4-4h20.128c-.5976491 4.8269795.9107255 9.6777197 4.140277 13.314602s7.8679388 5.7081713 12.731723 5.685398c2.4156512-.0018705 4.8027565-.5222594 7-1.526zm-7-13c-8.2842712 0-15-6.7157288-15-15 0-8.28427125 6.7157288-15 15-15s15 6.71572875 15 15c-.0093685 8.2803876-6.7196124 14.9906315-15 15z" fill-rule="nonzero" fill="#000000" data-original="#000000" class=""/>
          <path id="Path" d="m7 21h15c.5522847 0 1-.4477153 1-1s-.4477153-1-1-1h-15c-.55228475 0-1 .4477153-1 1s.44771525 1 1 1z" fill="#000000" data-original="#000000" class=""/>
          <path id="Path" d="m7 27h17c.5522847 0 1-.4477153 1-1s-.4477153-1-1-1h-17c-.55228475 0-1 .4477153-1 1s.44771525 1 1 1z" fill="#000000" data-original="#000000" class=""/>
          <path id="Path" d="m7 33h21c.5522847 0 1-.4477153 1-1s-.4477153-1-1-1h-21c-.55228475 0-1 .4477153-1 1s.44771525 1 1 1z" fill="#000000" data-original="#000000" class=""/>
          <path id="Path" d="m15 38c0 .5522847.4477153 1 1 1h29c.5522847 0 1-.4477153 1-1s-.4477153-1-1-1h-29c-.5522847 0-1 .4477153-1 1z" fill="#000000" data-original="#000000" class=""/>
          <path id="Path" d="m12 37h-5c-.55228475 0-1 .4477153-1 1s.44771525 1 1 1h5c.5522847 0 1-.4477153 1-1s-.4477153-1-1-1z" fill="#000000" data-original="#000000" class=""/>
          <g fill-rule="nonzero">
            <path id="Shape" d="m43 23c-1.6568542 0-3 1.3431458-3 3s1.3431458 3 3 3 3-1.3431458 3-3-1.3431458-3-3-3zm0 4c-.5522847 0-1-.4477153-1-1s.4477153-1 1-1 1 .4477153 1 1-.4477153 1-1 1z" fill="#000000" data-original="#000000" class=""/>
            <path id="Shape" d="m43 5c-1.6568542 0-3 1.34314575-3 3v10c0 1.6568542 1.3431458 3 3 3s3-1.3431458 3-3v-10c0-1.65685425-1.3431458-3-3-3zm1 13c0 .5522847-.4477153 1-1 1s-1-.4477153-1-1v-10c0-.55228475.4477153-1 1-1s1 .44771525 1 1z" fill="#000000" data-original="#000000" class=""/>
          </g>
        </g>
      </g>
    </g>
  </g>
</svg>
