<?xml version="1.0" encoding="UTF-8"?>
<svg xmlns="http://www.w3.org/2000/svg" xmlns:xlink="http://www.w3.org/1999/xlink" xmlns:svgjs="http://svgjs.com/svgjs" version="1.1" width="512" height="512" x="0" y="0" viewBox="0 0 511.993 511.993" style="enable-background:new 0 0 512 512" xml:space="preserve">
  <g>
    <g xmlns="http://www.w3.org/2000/svg">
      <g>
        <g>
          <path d="m486.241 177.324-195.832-157.693c-20.09-16.177-48.736-16.177-68.826 0l-195.831 157.693v273.154c0 29.831 24.183 54.015 54.015 54.015h352.461c29.831 0 54.015-24.183 54.015-54.015v-273.154z" fill="#dcc16e" data-original="#ffe07d"/>
          <path d="m122.287 504.493h-42.53c-29.83 0-54.01-24.18-54.01-54.01v-273.159h42.53v273.159c0 29.83 24.18 54.01 54.01 54.01z" fill="#ffd064" data-original="#ffd064"/>
          <path d="m486.235 177.324-53.07 42.74-142.759 114.95c-20.09 16.18-48.74 16.18-68.83 0l-142.749-114.94-.01-.01-53.07-42.74 53.08-42.74 122.359-98.529 20.39-16.42c20.09-16.19 48.74-16.19 68.83 0l20.39 16.42 113.419 91.33z" fill="#ffd064" data-original="#ffd064"/>
          <path d="m433.165 154.314v65.75l-142.759 114.95c-20.09 16.18-48.74 16.18-68.83 0l-142.749-114.94v-148.039c0-19.87 16.11-35.98 35.98-35.98h200.099c11.92 0 23.36 4.73 31.8 13.17l73.29 73.29c1.53 1.53 2.94 3.16 4.22 4.87 5.77 7.73 8.949 17.159 8.949 26.929z" fill="#f9f6f9" data-original="#f9f6f9"/>
          <path d="m433.169 154.322v7.678c0-14.53-11.783-26.313-26.313-26.313h-37.343c-19.87 0-35.978-16.108-35.978-35.978v-37.343c0-14.53-11.783-26.313-26.313-26.313h7.678c11.93 0 23.369 4.743 31.808 13.173l73.288 73.288c8.43 8.439 13.173 19.878 13.173 31.808z" fill="#dddaec" data-original="#dddaec"/>
        </g>
      </g>
      <g>
        <path d="m490.949 171.481-61.372-49.414c-1.32-1.689-2.738-3.316-4.277-4.857l-28.95-28.95c-2.93-2.929-7.678-2.929-10.607 0s-2.929 7.678 0 10.606l28.947 28.947c.558.559 1.089 1.136 1.606 1.723-2.998-.874-6.164-1.351-9.44-1.351h-37.34c-15.704 0-28.479-12.776-28.479-28.48v-37.34c0-3.277-.478-6.442-1.352-9.441.585.517 1.161 1.046 1.718 1.603l23.32 23.32c1.465 1.464 3.385 2.197 5.304 2.197s3.839-.732 5.304-2.197c2.929-2.929 2.929-7.678 0-10.606l-23.324-23.323c-9.919-9.907-23.095-15.363-37.1-15.363h-1.468l-18.328-14.759c-11.044-8.898-24.936-13.796-39.115-13.796s-28.07 4.898-39.114 13.793l-18.33 14.761h-83.745c-23.975 0-43.479 19.505-43.479 43.48v58.957l-50.285 40.49c-1.768 1.424-2.796 3.572-2.796 5.842v206.11c0 4.142 3.357 7.5 7.5 7.5s7.5-3.358 7.5-7.5v-190.445l183.63 147.867c11.045 8.896 24.938 13.795 39.12 13.795 14.183 0 28.075-4.899 39.12-13.794l183.63-147.868v257.495c0 25.646-20.868 46.51-46.52 46.51h-352.461c-25.651 0-46.52-20.864-46.52-46.51v-37.05c0-4.142-3.357-7.5-7.5-7.5s-7.5 3.358-7.5 7.5v37.05c0 33.917 27.598 61.51 61.52 61.51h352.461c33.922 0 61.52-27.593 61.52-61.51v-273.16c-.001-2.27-1.029-4.418-2.798-5.842zm-16.663 5.84-33.62 27.073.001-50.082c0-1.412-.07-2.812-.18-4.206zm-247.996-151.845c17.213-13.863 42.199-13.862 59.412 0l3.821 3.077h-.507c-.013 0-.026.002-.039.002h-66.51zm-154.963 178.918-33.62-27.072 33.62-27.071zm214.381 124.779c-17.216 13.866-42.207 13.867-59.423-.001l-139.958-112.7v-144.437c0-15.704 12.775-28.48 28.479-28.48h192.409c10.378 0 18.82 8.438 18.82 18.81v37.34c0 23.975 19.505 43.48 43.479 43.48h37.34c10.372 0 18.81 8.438 18.81 18.81v54.479z" fill="#000000" data-original="#000000"/>
        <path d="m369.515 461.864c1.387 1.116 3.048 1.659 4.699 1.659 2.192 0 4.365-.957 5.847-2.797 2.598-3.226 2.088-7.947-1.138-10.545l-71.521-57.592c-3.229-2.598-7.948-2.088-10.546 1.138s-2.088 7.947 1.138 10.545z" fill="#000000" data-original="#000000"/>
        <path d="m137.779 463.523c1.65 0 3.312-.543 4.699-1.659l71.521-57.592c3.226-2.598 3.735-7.319 1.138-10.545-2.599-3.226-7.317-3.737-10.546-1.138l-71.521 57.592c-3.226 2.598-3.735 7.319-1.138 10.545 1.482 1.84 3.654 2.797 5.847 2.797z" fill="#000000" data-original="#000000"/>
        <path d="m242.424 155.925c-.025-.069-.053-.138-.081-.206-1.459-3.548-4.88-5.84-8.717-5.84-.003 0-.006 0-.009 0-3.841.004-7.262 2.303-8.716 5.857-.023.057-.046.114-.067.171l-31.908 83.779c-1.475 3.871.469 8.204 4.34 9.678.878.335 1.78.493 2.668.493 3.021 0 5.87-1.84 7.01-4.833l6.107-16.035h40.915l6.043 16.014c1.462 3.875 5.79 5.833 9.665 4.369 3.875-1.462 5.831-5.79 4.368-9.665zm-23.66 58.065 14.838-38.959 14.703 38.959z" fill="#000000" data-original="#000000"/>
        <path d="m184.259 150.99h-34.188c-4.143 0-7.5 3.358-7.5 7.5v84.353c0 4.142 3.357 7.5 7.5 7.5s7.5-3.358 7.5-7.5v-35.475h23.973c4.143 0 7.5-3.358 7.5-7.5s-3.357-7.5-7.5-7.5h-23.973v-26.378h26.688c4.143 0 7.5-3.358 7.5-7.5s-3.357-7.5-7.5-7.5z" fill="#000000" data-original="#000000"/>
        <path d="m367.794 229.899c5.954-8.227 9.476-18.324 9.476-29.233 0-27.563-22.424-49.988-49.987-49.988s-49.988 22.425-49.988 49.988 22.425 49.988 49.988 49.988c11.253 0 21.648-3.741 30.012-10.04l7.5 7.5c1.465 1.464 3.385 2.197 5.304 2.197s3.839-.732 5.304-2.197c2.929-2.929 2.929-7.678 0-10.606zm-40.511 5.755c-19.293 0-34.988-15.695-34.988-34.988s15.695-34.988 34.988-34.988c19.292 0 34.987 15.696 34.987 34.988 0 6.763-1.935 13.081-5.271 18.438l-8.782-8.782c-2.93-2.929-7.678-2.929-10.607 0s-2.929 7.678 0 10.606l8.929 8.929c-5.527 3.66-12.145 5.797-19.256 5.797z" fill="#000000" data-original="#000000"/>
      </g>
    </g>
  </g>
</svg>
