<?xml version="1.0" encoding="UTF-8"?>
<svg xmlns="http://www.w3.org/2000/svg" xmlns:xlink="http://www.w3.org/1999/xlink" xmlns:svgjs="http://svgjs.com/svgjs" version="1.1" width="512" height="512" x="0" y="0" viewBox="0 0 512 512" style="enable-background:new 0 0 512 512" xml:space="preserve" class="">
  <g>
    <g xmlns="http://www.w3.org/2000/svg" id="filled_outline" data-name="filled outline">
      <g fill="#fbb540">
        <path d="m261.908 84.292 10.356 31.873h33.512a6.212 6.212 0 0 1 3.652 11.237l-27.113 19.7 10.356 31.873a6.211 6.211 0 0 1 -9.559 6.944l-27.112-19.7-27.112 19.7a6.211 6.211 0 0 1 -9.559-6.944l10.356-31.875-27.113-19.7a6.212 6.212 0 0 1 3.652-11.237h33.512l10.356-31.873a6.212 6.212 0 0 1 11.816.002z" fill="#d2a862" data-original="#fbb540" class=""/>
        <path d="m137.042 142.532 8.2 25.249h26.548a4.921 4.921 0 0 1 2.893 8.9l-21.478 15.6 8.2 25.249a4.921 4.921 0 0 1 -7.573 5.5l-21.478-15.605-21.478 15.605a4.921 4.921 0 0 1 -7.572-5.5l8.2-25.249-21.478-15.6a4.921 4.921 0 0 1 2.892-8.9h26.548l8.2-25.249a4.921 4.921 0 0 1 9.376 0z" fill="#d2a862" data-original="#fbb540" class=""/>
        <path d="m72.318 246.532 8.2 25.249h26.552a4.921 4.921 0 0 1 2.892 8.9l-21.478 15.6 8.2 25.249a4.921 4.921 0 0 1 -7.572 5.5l-21.474-15.597-21.478 15.605a4.921 4.921 0 0 1 -7.573-5.5l8.2-25.249-21.478-15.6a4.921 4.921 0 0 1 2.893-8.9h26.552l8.2-25.249a4.921 4.921 0 0 1 9.364-.008z" fill="#d2a862" data-original="#fbb540" class=""/>
        <path d="m448.318 246.532 8.2 25.249h26.552a4.921 4.921 0 0 1 2.892 8.9l-21.478 15.6 8.2 25.249a4.921 4.921 0 0 1 -7.572 5.5l-21.478-15.605-21.474 15.613a4.921 4.921 0 0 1 -7.573-5.5l8.2-25.249-21.478-15.6a4.921 4.921 0 0 1 2.893-8.9h26.548l8.2-25.249a4.921 4.921 0 0 1 9.368-.008z" fill="#d2a862" data-original="#fbb540" class=""/>
        <path d="m384.318 142.532 8.2 25.249h26.552a4.921 4.921 0 0 1 2.892 8.9l-21.478 15.6 8.2 25.249a4.921 4.921 0 0 1 -7.572 5.5l-21.478-15.605-21.474 15.613a4.921 4.921 0 0 1 -7.573-5.5l8.2-25.249-21.478-15.6a4.921 4.921 0 0 1 2.893-8.9h26.548l8.2-25.249a4.921 4.921 0 0 1 9.368-.008z" fill="#d2a862" data-original="#fbb540" class=""/>
      </g>
      <path d="m144 312.695h64v112h-64z" fill="#0296e5" data-original="#0296e5"/>
      <path d="m352 312.7h-64v-48a24 24 0 0 0 -24-24h-16l-2.94 20.583a68.282 68.282 0 0 1 -37.06 51.417v112l7.252 4.835a66.476 66.476 0 0 0 36.876 11.165h91.872a16 16 0 0 0 16-16 16 16 0 0 0 -16-16 16 16 0 0 0 16-16 16 16 0 0 0 -16-16 16 16 0 0 0 16-16 16 16 0 0 0 -16-16h8a16 16 0 0 0 16-16 16 16 0 0 0 -16-16z" fill="#fdc9a6" data-original="#fdc9a6"/>
      <path d="m319.292 117.984a14.175 14.175 0 0 0 -13.516-9.819h-27.7l-8.56-26.345a14.212 14.212 0 0 0 -27.032 0l-8.56 26.345h-27.7a14.212 14.212 0 0 0 -8.354 25.709l22.41 16.281-8.56 26.345a14.206 14.206 0 0 0 21.87 15.888l22.41-16.281 22.41 16.282a14.212 14.212 0 0 0 21.87-15.889l-8.56-26.345 22.41-16.282a14.175 14.175 0 0 0 5.162-15.889zm-41.679 22.643a8 8 0 0 0 -2.906 8.945l8.655 26.638-22.662-16.463a8 8 0 0 0 -9.4 0l-22.66 16.463 8.655-26.638a8 8 0 0 0 -2.906-8.945l-22.658-16.462h28.007a8 8 0 0 0 7.609-5.528l8.653-26.637 8.655 26.638a8 8 0 0 0 7.609 5.528h28.007z" fill="#000000" data-original="#000000"/>
      <path d="m156.733 231.985a12.933 12.933 0 0 0 12.288-16.922l-6.408-19.72 16.776-12.188a12.921 12.921 0 0 0 -7.595-23.374h-20.735l-6.408-19.72a12.921 12.921 0 0 0 -24.577 0l-6.408 19.721h-20.736a12.921 12.921 0 0 0 -7.6 23.374l16.776 12.188-6.406 19.72a12.921 12.921 0 0 0 19.882 14.447l16.776-12.189 16.776 12.189a12.909 12.909 0 0 0 7.599 2.474zm-29.074-31.024-13.81 10.039 5.276-16.236a8 8 0 0 0 -2.907-8.946l-13.81-10.033h17.071a8 8 0 0 0 7.608-5.527l5.275-16.236 5.276 16.236a8 8 0 0 0 7.608 5.527h17.07l-13.81 10.034a8 8 0 0 0 -2.906 8.945l5.275 16.236-13.811-10.035a8 8 0 0 0 -9.404-.004z" fill="#000000" data-original="#000000"/>
      <path d="m107.07 263.781h-20.736l-6.408-19.72a12.92 12.92 0 0 0 -24.576 0l-6.409 19.721h-20.735a12.921 12.921 0 0 0 -7.595 23.374l16.776 12.188-6.408 19.721a12.921 12.921 0 0 0 19.883 14.447l16.776-12.189 16.776 12.189a12.921 12.921 0 0 0 19.886-14.449l-6.407-19.72 16.776-12.188a12.921 12.921 0 0 0 -7.6-23.374zm-23.288 26.033a8 8 0 0 0 -2.907 8.946l5.276 16.24-13.811-10.039a8 8 0 0 0 -9.4 0l-13.815 10.039 5.275-16.24a8 8 0 0 0 -2.906-8.945l-13.81-10.034h17.07a8 8 0 0 0 7.608-5.527l5.276-16.236 5.275 16.236a8 8 0 0 0 7.608 5.527h17.071z" fill="#000000" data-original="#000000"/>
      <path d="m483.07 263.781h-20.736l-6.408-19.72a12.92 12.92 0 0 0 -24.576 0l-6.409 19.721h-20.735a12.921 12.921 0 0 0 -7.6 23.374l16.776 12.188-6.408 19.721a12.921 12.921 0 0 0 19.883 14.447l16.776-12.189 16.776 12.189a12.921 12.921 0 0 0 19.891-14.449l-6.407-19.72 16.776-12.188a12.921 12.921 0 0 0 -7.6-23.374zm-23.288 26.033a8 8 0 0 0 -2.907 8.946l5.276 16.24-13.811-10.039a8 8 0 0 0 -9.4 0l-13.815 10.039 5.275-16.24a8 8 0 0 0 -2.906-8.945l-13.81-10.034h17.07a8 8 0 0 0 7.608-5.527l5.276-16.236 5.275 16.236a8 8 0 0 0 7.608 5.527h17.071z" fill="#000000" data-original="#000000"/>
      <path d="m404.008 231.985a12.932 12.932 0 0 0 12.292-16.922l-6.407-19.72 16.776-12.188a12.921 12.921 0 0 0 -7.6-23.374h-20.735l-6.408-19.72a12.92 12.92 0 0 0 -24.576 0l-6.409 19.721h-20.735a12.921 12.921 0 0 0 -7.6 23.374l16.776 12.188-6.408 19.721a12.921 12.921 0 0 0 19.883 14.447l16.776-12.189 16.776 12.189a12.906 12.906 0 0 0 7.599 2.473zm-29.073-31.024-13.81 10.039 5.275-16.24a8 8 0 0 0 -2.906-8.945l-13.81-10.034h17.07a8 8 0 0 0 7.608-5.527l5.276-16.236 5.275 16.236a8 8 0 0 0 7.608 5.527h17.071l-13.81 10.033a8 8 0 0 0 -2.907 8.946l5.276 16.24-13.811-10.039a8 8 0 0 0 -9.404 0z" fill="#000000" data-original="#000000"/>
      <path d="m352 304.7h-56v-40a32.037 32.037 0 0 0 -32-32h-16a8 8 0 0 0 -7.919 6.868l-2.941 20.584a60.273 60.273 0 0 1 -31.15 44.548h-61.99a8 8 0 0 0 -8 8v112a8 8 0 0 0 8 8h61.578l5.237 3.492a74.243 74.243 0 0 0 41.313 12.508h91.872a23.988 23.988 0 0 0 17.874-40 23.958 23.958 0 0 0 0-32 23.96 23.96 0 0 0 3.034-27.774 24 24 0 0 0 -12.908-44.226zm-200 16h48v96h-48zm200 16h-8a8 8 0 0 0 0 16 8 8 0 0 1 0 16 8 8 0 0 0 0 16 8 8 0 0 1 0 16 8 8 0 0 0 0 16 8 8 0 0 1 0 16h-91.872a58.3 58.3 0 0 1 -32.438-9.821l-3.69-2.46v-102.965a76.292 76.292 0 0 0 36.979-55.044l1.959-13.715h9.062a16.019 16.019 0 0 1 16 16v48a8 8 0 0 0 8 8h64a8 8 0 0 1 0 16z" fill="#000000" data-original="#000000"/>
    </g>
  </g>
</svg>
