<?xml version="1.0" encoding="UTF-8"?>
<svg xmlns="http://www.w3.org/2000/svg" xmlns:xlink="http://www.w3.org/1999/xlink" xmlns:svgjs="http://svgjs.com/svgjs" version="1.1" width="512" height="512" x="0" y="0" viewBox="0 0 64 64" style="enable-background:new 0 0 512 512" xml:space="preserve">
  <g>
    <g xmlns="http://www.w3.org/2000/svg" id="Layer_3" data-name="Layer 3">
      <path d="m24 53-2 3h-2l-2-3 3-3z" fill="#ba3434" data-original="#f2f2f2"/>
      <path d="m22 56h-2l-2 6h6z" fill="#cccccc" data-original="#cccccc"/>
    </g>
    <g xmlns="http://www.w3.org/2000/svg" id="Layer_4" data-name="Layer 4">
      <path d="m31 29v6a10 10 0 0 1 -10 10 10 10 0 0 1 -10-10v-6h3.527a7.237 7.237 0 0 0 6.473-4 7.237 7.237 0 0 0 6.473 4z" fill="#fddfb1" data-original="#fddfb1"/>
      <path d="m11 35v-5h-1a3 3 0 0 0 0 6h1.05c-.032-.329-.05-.662-.05-1z" fill="#fddfb1" data-original="#fddfb1"/>
      <path d="m33.3 21.935-.155-.534a10.311 10.311 0 0 0 -9.887-7.401h-4.516a10.313 10.313 0 0 0 -10.248 11.45l.648 4.69a2.97 2.97 0 0 1 .858-.14h1v-1h3.527a7.237 7.237 0 0 0 6.473-4 7.237 7.237 0 0 0 6.473 4h3.527v1h1a2.947 2.947 0 0 1 .961.172l.545-4.722c.016-.15.092-1 .1-1.149z" fill="#686868" data-original="#686868"/>
      <path d="m32 30h-1v5c0 .338-.018.671-.05 1h1.05a3 3 0 0 0 0-6z" fill="#fddfb1" data-original="#fddfb1"/>
      <path d="m27.473 29a7.237 7.237 0 0 1 -6.473-4 7.237 7.237 0 0 1 -6.473 4h-3.527v6a9.942 9.942 0 0 0 2.014 6h9.986a5 5 0 0 0 5-5v-7z" fill="#feecd0" data-original="#feecd0"/>
      <path d="m36.018 50.578-10.018-3.578v-3.349a9.941 9.941 0 0 1 -10 0v3.349l-10.018 3.578a6 6 0 0 0 -3.982 5.65v5.772h38v-5.772a6 6 0 0 0 -3.982-5.65z" fill="#ba3434" data-original="#f2f2f2"/>
      <path d="m29 60a6 6 0 0 0 6-6v-3.786l-9-3.214v-3.349a9.941 9.941 0 0 1 -10 0v3.349l-10.018 3.578a6 6 0 0 0 -3.982 5.65v3.772z" fill="#ffffff" data-original="#ffffff"/>
      <path d="m48 2a13.969 13.969 0 0 0 -13.461 17.812l-4.539 5.188 6.762-.676a13.994 13.994 0 1 0 11.238-22.324z" fill="#f3a845" data-original="#f3a845"/>
      <path d="m48 2a13.969 13.969 0 0 0 -13.461 17.812l-3.664 4.188h22.125a4 4 0 0 0 4-4v-14.717a13.938 13.938 0 0 0 -9-3.283z" fill="#eecc61" data-original="#eecc61"/>
      <rect fill="#fce79c" height="9" rx="3" width="13" x="39" y="9" data-original="#fce79c"/>
      <path d="m21 45a9.937 9.937 0 0 1 -5-1.349v3.349l5 3 5-3v-3.349a9.937 9.937 0 0 1 -5 1.349z" fill="#fddfb1" data-original="#fddfb1"/>
      <path d="m16 47-3 1 3.999 6 4.001-4z" fill="#cccccc" data-original="#cccccc"/>
      <path d="m26 47-5 3 3.999 4 3.963-5.942z" fill="#cccccc" data-original="#cccccc"/>
      <path d="m50 13v8h3v4h-10v-4h3v-4h-3v-4z" fill="#ffffff" data-original="#ffffff"/>
      <circle cx="48" cy="8" fill="#ffffff" r="2" data-original="#ffffff"/>
      <path d="m15 32h2v3h-2z" fill="#000000" data-original="#000000"/>
      <path d="m25 32h2v3h-2z" fill="#000000" data-original="#000000"/>
      <path d="m21 40a2 2 0 0 1 -2-2h-2a4 4 0 0 0 8 0h-2a2 2 0 0 1 -2 2z" fill="#000000" data-original="#000000"/>
      <path d="m53 20h-2v-7a1 1 0 0 0 -1-1h-7a1 1 0 0 0 -1 1v4a1 1 0 0 0 1 1h2v2h-2a1 1 0 0 0 -1 1v4a1 1 0 0 0 1 1h10a1 1 0 0 0 1-1v-4a1 1 0 0 0 -1-1zm-1 4h-8v-2h2a1 1 0 0 0 1-1v-4a1 1 0 0 0 -1-1h-2v-2h5v7a1 1 0 0 0 1 1h2z" fill="#000000" data-original="#000000"/>
      <path d="m48 11a3 3 0 1 0 -3-3 3 3 0 0 0 3 3zm0-4a1 1 0 1 1 -1 1 1 1 0 0 1 1-1z" fill="#000000" data-original="#000000"/>
      <path d="m48 1a14.916 14.916 0 0 0 -14.606 18.322 11.218 11.218 0 0 0 -10.136-6.322h-4.516a11.31 11.31 0 0 0 -11.242 12.56l.447 4.025a3.988 3.988 0 0 0 2.053 7.415h.191a11.017 11.017 0 0 0 4.809 7.208v2.092l-9.354 3.336a7.015 7.015 0 0 0 -4.646 6.592v5.772a1 1 0 0 0 1 1h38a1 1 0 0 0 1-1v-5.772a7.015 7.015 0 0 0 -4.646-6.592l-9.354-3.336v-2.092a11.017 11.017 0 0 0 4.809-7.208h.191a3.988 3.988 0 0 0 2.052-7.415l.447-4.022v-.008l1.809-.181a14.854 14.854 0 0 0 11.692 5.626 15 15 0 0 0 0-30zm-40 32a2 2 0 0 1 2-2v4a2 2 0 0 1 -2-2zm18.109 15.1 1.31.468-2.575 3.862-2.231-2.23zm-5.388 8.9h.558l1.333 4h-3.224zm.744-2h-.93l-1.249-1.873 1.714-1.713 1.713 1.714zm-4.31-2.57-2.574-3.861 1.31-.468 3.5 2.1zm-14.155 3.798a5.01 5.01 0 0 1 3.318-4.708l6.321-2.258 3.528 5.293a1 1 0 0 0 .733.445.831.831 0 0 0 .1 0 1 1 0 0 0 .707-.293l.138-.138 1.055 1.579-1.621 4.852h-14.279zm36 0v4.772h-14.279l-1.621-4.852 1.052-1.578.137.137a.988.988 0 0 0 .811.293 1 1 0 0 0 .733-.44l3.529-5.293 6.322 2.258a5.01 5.01 0 0 1 3.316 4.703zm-14-9.794-4 2.4-4-2.4v-1.2a10.853 10.853 0 0 0 8 0zm5-11.434a9 9 0 0 1 -18 0v-5h2.527a8.185 8.185 0 0 0 6.473-3.137 8.185 8.185 0 0 0 6.473 3.137h2.527zm2 0v-4a2 2 0 0 1 0 4zm.1-5.99c-.035 0-.068-.01-.1-.01a1 1 0 0 0 -1-1h-3.527a6.2 6.2 0 0 1 -5.573-3.447 1.042 1.042 0 0 0 -1.79 0 6.2 6.2 0 0 1 -5.583 3.447h-3.527a1 1 0 0 0 -1 1c-.036 0-.069.01-.1.01l-.408-3.671a9.311 9.311 0 0 1 9.25-10.339h4.516a9.254 9.254 0 0 1 8.755 6.181l-2.765 3.16a1 1 0 0 0 .852 1.659l2.365-.237zm15.9-.01a12.885 12.885 0 0 1 -10.435-5.272 1 1 0 0 0 -.8-.4.821.821 0 0 0 -.1 0l-4.243.424 2.872-3.282a1 1 0 0 0 .209-.93 12.995 12.995 0 1 1 12.497 9.46z" fill="#000000" data-original="#000000"/>
    </g>
  </g>
</svg>
