<?xml version="1.0" encoding="UTF-8"?>
<svg xmlns="http://www.w3.org/2000/svg" xmlns:xlink="http://www.w3.org/1999/xlink" xmlns:svgjs="http://svgjs.com/svgjs" version="1.1" width="512" height="512" x="0" y="0" viewBox="0 0 36 36" style="enable-background:new 0 0 512 512" xml:space="preserve">
  <g>
    <path xmlns="http://www.w3.org/2000/svg" d="m7.04443 16.1525c1.96946 5.9084.86738 9.3966 0 11.565-2.89126 7.2282 22.40727 7.951 24.57577-3.614 2.1684-11.5651-9.3966-20.2389-15.902-20.96172-6.50532-.72281-8.67377 1.44564-10.1194 3.61409-1.44563 2.16844 0 5.05973 1.44563 9.39663z" fill="#863b3b" data-original="#efefef"/>
    <path xmlns="http://www.w3.org/2000/svg" d="m10 7.25c-1.51878 0-2.75 1.23122-2.75 2.75v16c0 1.5188 1.23122 2.75 2.75 2.75h16c1.5188 0 2.75-1.2312 2.75-2.75v-16c0-1.51878-1.2312-2.75-2.75-2.75z" fill="#2edf84" data-original="#2edf84"/>
    <g xmlns="http://www.w3.org/2000/svg" clip-rule="evenodd" fill-rule="evenodd">
      <path d="m7.25 10c0-1.51878 1.23122-2.75 2.75-2.75h2.5c-1.5188 0-2.75 1.23122-2.75 2.75v16c0 1.5188 1.2312 2.75 2.75 2.75h-2.5c-1.51878 0-2.75-1.2312-2.75-2.75z" fill="#00b872" data-original="#00b872"/>
      <path d="m7.25 10c0-1.51878 1.23122-2.75 2.75-2.75h16c1.5188 0 2.75 1.23122 2.75 2.75v16c0 1.5188-1.2312 2.75-2.75 2.75h-16c-1.51878 0-2.75-1.2312-2.75-2.75zm2.75-1.25c-.69036 0-1.25.55964-1.25 1.25v16c0 .6904.55964 1.25 1.25 1.25h16c.6904 0 1.25-.5596 1.25-1.25v-16c0-.69036-.5596-1.25-1.25-1.25z" fill="#000000" data-original="#000000"/>
      <path d="m10.75 25.5v-15h1.5v15z" fill="#000000" data-original="#000000"/>
      <path d="m20.5303 13.4697 3.5 3.5c.2792.2792.2941.727.0341 1.0242l-3.5 4-1.1288-.9878 2.4116-2.7561h-7.8472v-1.5h7.6893l-2.2196-2.2197z" fill="#000000" data-original="#000000"/>
      <path d="m29.5 5c.2761 0 .5-.22386.5-.5s-.2239-.5-.5-.5-.5.22386-.5.5.2239.5.5.5zm0 1c.8284 0 1.5-.67157 1.5-1.5s-.6716-1.5-1.5-1.5-1.5.67157-1.5 1.5.6716 1.5 1.5 1.5z" fill="#a4afc1" data-original="#a4afc1"/>
    </g>
  </g>
</svg>
