<?xml version="1.0" encoding="UTF-8"?>
<svg xmlns="http://www.w3.org/2000/svg" xmlns:xlink="http://www.w3.org/1999/xlink" xmlns:svgjs="http://svgjs.com/svgjs" version="1.1" width="512" height="512" x="0" y="0" viewBox="0 0 512.014 512.014" style="enable-background:new 0 0 512 512" xml:space="preserve" class="">
  <g>
    <g xmlns="http://www.w3.org/2000/svg">
      <g>
        <g>
          <g>
            <g>
              <path d="m403.624 291.405v145.302c0 6.473-5.248 11.721-11.721 11.721h-307.509c-6.473 0-11.721-5.248-11.721-11.721v-307.508c0-6.473 5.248-11.721 11.721-11.721h56.181c2.761 0 5-2.239 5-5v-46.086c0-2.761-2.239-5-5-5h-100.546c-12.947 0-23.442 10.495-23.442 23.442v396.238c0 12.947 10.495 23.442 23.442 23.442h396.238c12.947 0 23.442-10.495 23.442-23.442v-230.941c0-4.323-5.115-6.609-8.336-3.725l-46.086 41.274c-1.058.949-1.663 2.303-1.663 3.725z" fill="#60aacc" data-original="#90d8f9"/>
            </g>
          </g>
        </g>
        <g>
          <g>
            <g>
              <path d="m493.452 127.239-133.513-118.24c-3.782-3.349-9.746-.664-9.746 4.387v42.146c0 3.237-2.624 5.86-5.86 5.86h-117.867c-17.647 0-31.953 14.306-31.953 31.953v259.247c0 5.484 7.553 6.968 9.628 1.892l56.916-139.237c3.31-8.096 11.187-13.387 19.934-13.387h63.342c3.237 0 5.86 2.624 5.86 5.86v42.146c0 5.052 5.964 7.736 9.746 4.387l133.513-118.24c2.633-2.332 2.633-6.442 0-8.774z" fill="#dd636e" data-original="#dd636e"/>
            </g>
          </g>
        </g>
        <g>
          <g>
            <g>
              <path d="m427.264 436.707s.293-105.145.828-169.449l-22.804 20.423c-1.059.948-1.664 2.303-1.664 3.725v145.302c0 6.473-5.248 11.721-11.721 11.721h23.64c6.473-.001 11.721-5.249 11.721-11.722z" fill="#75cef9" data-original="#75cef9"/>
            </g>
          </g>
        </g>
        <g>
          <g>
            <g>
              <path d="m40.227 481.072v-396.238c0-12.947 10.495-23.442 23.442-23.442h-23.64c-12.947 0-23.442 10.495-23.442 23.442v396.238c0 12.947 10.495 23.442 23.442 23.442h23.64c-12.946 0-23.442-10.495-23.442-23.442z" fill="#75cef9" data-original="#75cef9"/>
            </g>
          </g>
        </g>
        <g>
          <g>
            <g>
              <path d="m218.153 93.345c0-17.647 14.306-31.953 31.953-31.953h117.867c3.237 0 5.861-2.624 5.861-5.86v-34.229l-13.895-12.304c-3.782-3.349-9.746-.664-9.746 4.387v42.146c0 3.237-2.624 5.86-5.86 5.86h-117.867c-17.647 0-31.953 14.306-31.953 31.953v259.247c0 5.484 7.553 6.968 9.628 1.892l14.012-34.278z" fill="#c63d4f" data-original="#c63d4f"/>
            </g>
          </g>
        </g>
        <g>
          <g>
            <g>
              <path d="m373.833 207.721c0-3.237-2.624-5.86-5.861-5.86h-23.64c3.237 0 5.86 2.624 5.86 5.86v42.146c0 5.052 5.964 7.737 9.746 4.387l13.894-12.305v-34.228z" fill="#c63d4f" data-original="#c63d4f"/>
            </g>
          </g>
        </g>
      </g>
      <g>
        <path d="m16.587 217.105c4.143 0 7.5-3.358 7.5-7.5v-124.771c0-8.791 7.151-15.942 15.942-15.942h98.046v41.086h-53.681c-10.599 0-19.221 8.623-19.221 19.221v307.509c0 10.598 8.622 19.221 19.221 19.221h163.573c4.143 0 7.5-3.358 7.5-7.5s-3.357-7.5-7.5-7.5h-163.573c-2.327 0-4.221-1.894-4.221-4.221v-307.509c0-2.327 1.894-4.221 4.221-4.221h56.182c6.893 0 12.5-5.607 12.5-12.5v-46.086c0-6.893-5.607-12.5-12.5-12.5h-100.547c-17.062 0-30.942 13.88-30.942 30.942v124.771c0 4.142 3.357 7.5 7.5 7.5z" fill="#000000" data-original="#000000" class=""/>
        <path d="m459.809 238.718c-4.564-2.038-9.714-1.234-13.438 2.101l-46.085 41.274c-2.646 2.368-4.162 5.762-4.162 9.312v145.302c0 2.327-1.894 4.221-4.221 4.221h-106.136c-4.143 0-7.5 3.358-7.5 7.5s3.357 7.5 7.5 7.5h106.136c10.599 0 19.221-8.623 19.221-19.221v-144.184l41.086-36.796v225.346c0 8.791-7.151 15.942-15.941 15.942h-396.24c-8.791 0-15.942-7.151-15.942-15.942v-237.756c0-4.142-3.357-7.5-7.5-7.5s-7.5 3.358-7.5 7.5v237.755c0 17.062 13.881 30.942 30.942 30.942h396.238c17.062 0 30.941-13.88 30.941-30.942v-230.941c.001-5-2.835-9.373-7.399-11.413z" fill="#000000" data-original="#000000" class=""/>
        <path d="m498.424 121.624-77.131-68.309c-3.102-2.746-7.842-2.458-10.587.642-2.747 3.101-2.459 7.841.642 10.587l75.745 67.081-129.399 114.598v-38.502c0-7.367-5.994-13.36-13.361-13.36h-63.341c-11.846 0-22.396 7.084-26.877 18.049l-52.102 127.459v-246.524c0-13.483 10.969-24.453 24.452-24.453h117.867c7.367 0 13.361-5.994 13.361-13.36v-38.503l29.236 25.892c3.102 2.746 7.842 2.458 10.587-.642 2.747-3.101 2.459-7.841-.642-10.587l-31.963-28.308c-3.986-3.532-9.482-4.369-14.341-2.182s-7.877 6.855-7.877 12.184v40.506h-116.228c-21.754 0-39.452 17.698-39.452 39.453v259.248c0 6.054 4.149 11.098 10.09 12.266.837.165 1.67.244 2.49.244 5.002 0 9.522-2.965 11.49-7.78l56.916-139.237c2.166-5.3 7.267-8.725 12.992-8.725h61.702v40.506c0 5.328 3.018 9.996 7.876 12.183 4.859 2.187 10.354 1.352 14.342-2.181l133.512-118.24c2.862-2.534 4.504-6.18 4.504-10.002 0-3.823-1.642-7.469-4.503-10.003z" fill="#000000" data-original="#000000" class=""/>
      </g>
    </g>
  </g>
</svg>
