<?xml version="1.0" encoding="UTF-8"?>
<svg xmlns="http://www.w3.org/2000/svg" xmlns:xlink="http://www.w3.org/1999/xlink" xmlns:svgjs="http://svgjs.com/svgjs" version="1.1" width="512" height="512" x="0" y="0" viewBox="0 0 512 512" style="enable-background:new 0 0 512 512" xml:space="preserve" class="">
  <g>
    <g xmlns="http://www.w3.org/2000/svg">
      <g>
        <g>
          <path d="m94.374 95.386 80.813 104.047 80.813-104.047z" fill="#76bbd8" data-original="#b1e4f9"/>
        </g>
        <g>
          <path d="m417.626 95.386-80.813 104.047-80.813-104.047z" fill="#76bbd8" data-original="#b1e4f9"/>
        </g>
        <g>
          <path d="m417.626 95.386-80.813 104.047h167.687z" fill="#75cef9" data-original="#75cef9"/>
        </g>
        <g>
          <path d="m256 95.386-80.813 104.047h161.626z" fill="#90d8f9" data-original="#90d8f9"/>
        </g>
        <g>
          <path d="m94.374 95.386-86.874 104.047h167.687z" fill="#e4f6ff" data-original="#e4f6ff"/>
        </g>
        <g>
          <path d="m175.187 199.433 80.813 267.693 80.813-267.693z" fill="#75cef9" data-original="#75cef9"/>
        </g>
        <g>
          <path d="m256 467.126-248.5-267.693h167.687z" fill="#76bbd8" data-original="#b1e4f9"/>
        </g>
        <g>
          <path d="m256 467.126 248.5-267.693h-167.687z" fill="#6bbef6" data-original="#6bbef6"/>
        </g>
      </g>
      <g>
        <g>
          <path d="m419.541 303.785 14.247-7.124-14.247-7.124c-3.43-1.715-6.111-4.629-7.535-8.189l-9.532-23.831-9.532 23.831c-1.424 3.56-4.105 6.475-7.535 8.189l-14.247 7.124 14.247 7.124c3.43 1.715 6.111 4.629 7.535 8.189l9.532 23.831 9.532-23.831c1.424-3.56 4.105-6.474 7.535-8.189z" fill="#ffe07d" data-original="#ffe07d"/>
        </g>
      </g>
      <g>
        <g>
          <path d="m180.133 387.123 14.247-7.124-14.247-7.124c-3.43-1.715-6.111-4.629-7.535-8.189l-9.532-23.831-9.532 23.831c-1.424 3.56-4.105 6.474-7.535 8.189l-14.247 7.124 14.247 7.124c3.43 1.715 6.111 4.629 7.535 8.189l9.532 23.831 9.532-23.831c1.423-3.56 4.105-6.474 7.535-8.189z" fill="#ffe07d" data-original="#ffe07d"/>
        </g>
      </g>
      <g>
        <g>
          <path d="m128.519 104.578 18.384-9.192-18.384-9.192c-4.426-2.213-7.885-5.973-9.723-10.567l-12.3-30.749-12.3 30.749c-1.838 4.594-5.297 8.354-9.723 10.567l-18.384 9.192 18.384 9.192c4.426 2.213 7.885 5.973 9.723 10.567l12.3 30.749 12.3-30.749c1.837-4.594 5.297-8.354 9.723-10.567z" fill="#ffe07d" data-original="#ffe07d"/>
        </g>
      </g>
      <path d="m510.257 194.626-86.87-104.05c-1.425-1.707-3.533-2.693-5.757-2.693h-59.237c-4.143 0-7.5 3.358-7.5 7.5s3.357 7.5 7.5 7.5h43.916l-65.495 84.324-65.495-84.324h52.039c4.143 0 7.5-3.358 7.5-7.5s-3.357-7.5-7.5-7.5h-174.694l-16.791-8.396c-2.786-1.393-4.957-3.753-6.114-6.645l-12.299-30.749c-1.139-2.848-3.896-4.715-6.963-4.715-3.066 0-5.825 1.867-6.963 4.714l-12.3 30.749c-1.157 2.892-3.329 5.252-6.114 6.645l-18.384 9.192c-2.541 1.27-4.146 3.867-4.146 6.708s1.605 5.438 4.146 6.708l11.467 5.733-72.46 86.799c-2.419 2.898-2.308 7.142.261 9.909l82.584 88.963c1.478 1.592 3.485 2.397 5.499 2.397 1.826 0 3.657-.663 5.101-2.003 3.036-2.818 3.212-7.563.394-10.599l-70.885-76.36h144.92l69.839 231.342-45.919-49.469 4.197-2.098c2.541-1.27 4.146-3.867 4.146-6.708s-1.605-5.438-4.146-6.708l-14.248-7.125c-1.789-.894-3.183-2.409-3.926-4.267l-9.532-23.831c-1.139-2.847-3.896-4.714-6.963-4.714s-5.825 1.867-6.963 4.714l-2.912 7.28-33.662-36.262c-2.817-3.036-7.563-3.212-10.599-.394s-3.212 7.563-.394 10.599l38.492 41.465-.457 1.142c-.743 1.857-2.137 3.373-3.926 4.267l-14.248 7.124c-2.541 1.271-4.146 3.867-4.146 6.708s1.605 5.438 4.146 6.708l14.248 7.123c1.789.895 3.183 2.41 3.926 4.267l9.532 23.831c1.139 2.847 3.896 4.714 6.963 4.714s5.825-1.867 6.963-4.714l9.532-23.831c.208-.519.471-1.007.774-1.466l70.168 75.593c1.419 1.529 3.411 2.397 5.497 2.397s4.077-.869 5.497-2.397l131.014-141.131 2.999 7.497c1.14 2.847 3.897 4.714 6.964 4.714s5.824-1.867 6.964-4.714l9.532-23.832c.742-1.856 2.137-3.372 3.925-4.266l14.248-7.124c2.541-1.271 4.146-3.868 4.146-6.708s-1.605-5.438-4.146-6.708l-4.401-2.201 33.634-36.23c2.818-3.036 2.643-7.781-.394-10.599-3.036-2.819-7.781-2.642-10.599.394l-35.764 38.525c-.251-.405-.47-.832-.65-1.28l-9.532-23.831c-1.14-2.847-3.897-4.714-6.964-4.714s-5.824 1.867-6.964 4.714l-9.532 23.832c-.742 1.856-2.137 3.372-3.926 4.266l-14.248 7.124c-2.54 1.27-4.146 3.867-4.146 6.708s1.605 5.438 4.146 6.708l14.247 7.123c1.789.895 3.184 2.41 3.926 4.267l.37.925-113.802 122.596 69.84-231.345h144.92l-7.952 8.565c-2.817 3.036-2.642 7.781.395 10.599 1.444 1.341 3.274 2.003 5.101 2.003 2.013 0 4.021-.806 5.499-2.397l19.651-21.168c2.568-2.767 2.68-7.012.26-9.909zm-121.496 101.619c5.078-2.539 9.036-6.841 11.145-12.112l2.568-6.422 2.568 6.421c2.108 5.272 6.066 9.574 11.145 12.113l.832.416-.831.415h-.001c-5.078 2.539-9.036 6.841-11.145 12.112l-2.568 6.422-2.568-6.421c-2.108-5.272-6.066-9.574-11.146-12.113l-.831-.415zm99.708-104.312h-136.334l65.706-84.596zm-401.944-75.461c.262.471.506.953.708 1.459l12.3 30.749c1.139 2.847 3.896 4.714 6.963 4.714s5.825-1.867 6.963-4.715l4.354-10.884 42.054 54.138h-136.337zm234.967 75.461h-130.981l65.488-84.321zm-172.811-89.051h91.998l-65.489 84.324-50.92-65.551 1.49-3.724c1.157-2.892 3.328-5.251 6.114-6.645zm-60.854-9.98c6.075-3.037 10.81-8.183 13.333-14.49l5.336-13.34 5.336 13.34c2.523 6.307 7.258 11.453 13.333 14.49l4.967 2.484-4.967 2.484c-6.075 3.037-10.81 8.183-13.333 14.49l-5.336 13.34-5.336-13.34c-2.522-6.306-7.258-11.452-13.333-14.489l-4.967-2.484zm77.807 299.625-2.569 6.422-2.569-6.422c-2.109-5.271-6.066-9.573-11.145-12.112l-.831-.415.831-.416c5.078-2.539 9.036-6.84 11.145-12.112l2.569-6.422 2.569 6.422c2.109 5.272 6.067 9.573 11.145 12.112l.831.416-.831.415c-5.078 2.539-9.036 6.84-11.145 12.112zm90.366 48.648-70.714-234.242h141.429z" fill="#000000" data-original="#000000"/>
    </g>
  </g>
</svg>
