<svg xmlns="http://www.w3.org/2000/svg" xmlns:xlink="http://www.w3.org/1999/xlink" width="18" height="18" viewBox="0 0 18 18">
  <defs>
    <linearGradient id="linear-gradient" y1="-26.301" x2="1" y2="-26.301" gradientUnits="objectBoundingBox">
      <stop offset="0" stop-color="#342e2e"/>
      <stop offset="1" stop-color="#342e2e"/>
    </linearGradient>
  </defs>
  <g id="right-arrow" opacity="0.46">
    <path id="Path_525" data-name="Path 525" d="M18,9A9,9,0,1,1,9,0,9,9,0,0,1,18,9Zm0,0" fill="url(#linear-gradient)"/>
    <path id="Path_526" data-name="Path 526" d="M69.942,163.2a.532.532,0,0,0-.035-.709l-2.88-2.866a.527.527,0,0,0-.744.747l1.975,1.965H56.527a.527.527,0,0,0,0,1.055h11.73l-1.975,1.965a.527.527,0,0,0,.744.747l2.88-2.866a.486.486,0,0,0,.035-.039Zm0,0" transform="translate(-54.031 -153.869)" fill="#fff"/>
  </g>
</svg>
