<svg xmlns="http://www.w3.org/2000/svg" width="354.849" height="346.539" viewBox="0 0 354.849 346.539">
  <g id="Wallet-cuate" transform="translate(-40.1 -54.78)">
    <g id="freepik--background-complete--inject-18" transform="translate(42.982 55.794)">
      <path id="Path_8870" data-name="Path 8870" d="M81.036,303.081l-11.1.237-5.63.093c-1.877.042-3.77,0-5.655.051h-.38v-.381l-.042-9.458V293.2h.423l11.192.051c3.728,0,7.455.1,11.191.144h.228v.228c0,1.606-.076,3.2-.11,4.776Zm0,0-.118-4.776c0-1.581-.1-3.136-.118-4.683l.237.228c-3.736,0-7.464.135-11.191.144l-11.192.051.423-.422-.051,9.458-.372-.38c1.843,0,3.677,0,5.528.051l5.562.093Z" transform="translate(-45.787 -92.683)" fill="#ebebeb"/>
      <path id="Path_8871" data-name="Path 8871" d="M66.273,317.191l-11.1.237-5.63.093c-1.885.042-3.77,0-5.655.051h-.38V307.31h.414l11.192.051c3.728,0,7.455.1,11.191.144h.228v.228c0,1.606-.076,3.2-.11,4.776Zm0,0-.127-4.776c0-1.581-.093-3.136-.11-4.683l.237.228c-3.736.042-7.464.135-11.191.144l-11.158.051.414-.423-.076,9.459-.372-.38c1.843,0,3.677,0,5.528.051l5.562.093Z" transform="translate(-43.51 -94.866)" fill="#ebebeb"/>
      <path id="Path_8872" data-name="Path 8872" d="M95.835,317.191l-11.1.237-5.63.093c-1.876.042-3.77,0-5.655.051H73.08V307.31H73.5l11.191.051c3.728,0,7.464.1,11.192.144h.228v.228c0,1.606-.068,3.2-.11,4.776Zm0,0-.118-4.776c0-1.581-.1-3.136-.11-4.683l.228.228c-3.728.042-7.464.135-11.191.144l-11.191.051.423-.423-.068,9.459-.372-.38c1.843,0,3.685,0,5.528.051l5.562.093Z" transform="translate(-48.085 -94.866)" fill="#ebebeb"/>
      <path id="Path_8873" data-name="Path 8873" d="M437.1,317.191l-11.09.237-5.63.093c-1.885.042-3.778,0-5.663.051h-.372v-.38l-.051-9.459v-.422h.423l11.191.051c3.736,0,7.464.1,11.191.144h.237v.228c0,1.606-.076,3.2-.11,4.776Zm0,0-.118-4.776c0-1.581-.093-3.136-.11-4.683l.228.228c-3.728.042-7.455.135-11.191.144l-11.191.051.423-.423-.042,9.459-.38-.38c1.843,0,3.685,0,5.536.051l5.562.093Z" transform="translate(-100.877 -94.866)" fill="#ebebeb"/>
      <path id="Path_8874" data-name="Path 8874" d="M437.1,65.946l-11.09.194-5.63.1h-6.035V65.87l-.051-9.459V55.98h.423l11.191.051c3.736,0,7.464.093,11.191.135h.237v.228c0,1.6-.076,3.2-.11,4.776Zm0,0-.118-4.784c0-1.572-.093-3.128-.11-4.674l.228.228c-3.728,0-7.455.135-11.191.135l-11.191.051.423-.414-.042,9.459-.38-.38c1.843,0,3.685,0,5.536.042l5.562.1Z" transform="translate(-100.877 -55.98)" fill="#ebebeb"/>
      <path id="Path_8875" data-name="Path 8875" d="M451.826,80.062l-11.09.228-5.63.1h-6.035V80.02l-.051-9.459V70.13h.422l11.192.051c3.736,0,7.464.093,11.192.135h.237v.228c0,1.6-.076,3.2-.11,4.776Zm0,0-.119-4.784c0-1.572-.093-3.128-.11-4.674l.228.262c-3.728.042-7.455.135-11.192.135l-11.192.051.423-.414-.017,9.425-.38-.38H435l5.562.1Z" transform="translate(-103.156 -58.169)" fill="#ebebeb"/>
      <path id="Path_8876" data-name="Path 8876" d="M66.273,65.962l-11.1.237-5.63.093H43.51V56.03h.414l11.192.051c3.728,0,7.455.093,11.191.135h.228v.228c0,1.606-.076,3.2-.11,4.776Zm0,0-.127-4.784c0-1.572-.093-3.128-.11-4.674l.237.228c-3.736,0-7.464.135-11.191.135l-11.158.059.414-.423-.076,9.459-.338-.38c1.843,0,3.677,0,5.528.051l5.562.093Z" transform="translate(-43.51 -55.988)" fill="#ebebeb"/>
      <path id="Path_8877" data-name="Path 8877" d="M213.742,142.762l11.09-.237,5.63-.093c1.885-.042,3.778,0,5.663-.042h.372v.38l.051,9.459v.423h-.423l-11.217-.059c-3.736,0-7.464-.093-11.192-.135h-.237V152.2c0-1.606.076-3.2.11-4.776Zm0,0,.119,4.784c0,1.572.093,3.128.11,4.674l-.228-.228c3.728-.042,7.455-.135,11.192-.135l11.191-.059-.423.423v-9.459l.38.38c-1.843,0-3.685,0-5.536-.051L224.984,143Z" transform="translate(-69.808 -69.349)" fill="#ebebeb"/>
      <path id="Path_8878" data-name="Path 8878" d="M228.51,128.652l11.09-.237,5.63-.093c1.885-.042,3.778,0,5.663-.042h.372v.38l.051,9.459v.423h-.456l-11.192-.051c-3.728,0-7.464-.093-11.192-.135h-.237v-.228c0-1.606.068-3.2.11-4.776Zm0,0,.118,4.784c.042,1.572.093,3.128.11,4.674l-.228-.228c3.728,0,7.464-.135,11.192-.135l11.192-.059-.423.423.042-9.459.38.38c-1.843,0-3.685,0-5.537-.051l-5.562-.093Z" transform="translate(-72.091 -67.166)" fill="#ebebeb"/>
      <path id="Path_8879" data-name="Path 8879" d="M419.42,235.41c-35.155,0-35.214,50,0,50S454.634,235.41,419.42,235.41Z" transform="translate(-97.588 -83.741)" fill="#ebebeb"/>
      <path id="Path_8880" data-name="Path 8880" d="M441.627,265.874c-1.876,8.605-9.011,16.06-21.385,16.06-29.222,0-29.179-41.495,0-41.495h.574c-27.463.507-27.328,39.8.532,39.8C432.709,280.253,439.471,273.676,441.627,265.874Z" transform="translate(-98.41 -84.52)" fill="#dbdbdb"/>
      <path id="Path_8881" data-name="Path 8881" d="M422.688,246.91a.9.9,0,0,1,.913.845v1.395a13.071,13.071,0,0,1,6.762,2.434c.338.245.532.457.532.8a.947.947,0,0,1-.989.845.962.962,0,0,1-.685-.245,11.338,11.338,0,0,0-5.706-2.265v9.788c5.782,1.116,8.216,3.1,8.216,6.509,0,3.694-3.381,6.3-8.14,6.441v2.714a.913.913,0,0,1-1.826,0v-2.747a14.969,14.969,0,0,1-8.554-3.381.844.844,0,0,1-.422-.727.954.954,0,0,1,.955-.845,1,1,0,0,1,.685.245,12.738,12.738,0,0,0,7.413,3.161v-9.966c-5.706-1.15-8.064-3.06-8.064-6.542s3.381-6.2,7.988-6.3v-1.327A.888.888,0,0,1,422.688,246.91Zm-.845,13.229v-9.5c-3.686.068-6.12,2.088-6.12,4.59.009,2.367,1.226,3.829,6.128,4.911Zm1.69,2.122v9.611c3.8-.076,6.281-2.088,6.281-4.734-.009-2.4-1.344-3.863-6.289-4.877Z" transform="translate(-100.645 -85.521)" fill="#dbdbdb"/>
      <path id="Path_8882" data-name="Path 8882" d="M203.734,80.929c25.6,4.59,18.841,42.5-6.762,37.9S178.105,76.331,203.734,80.929Z" transform="translate(-64.753 -59.78)" fill="#dbdbdb"/>
      <path id="Path_8883" data-name="Path 8883" d="M201.049,80.435c24.395,4.37,17.633,42.264-6.8,37.9S176.62,76.049,201.049,80.435Z" transform="translate(-64.469 -59.709)" fill="#ebebeb"/>
      <path id="Path_8884" data-name="Path 8884" d="M182.77,100.946c.127,6.762,4.057,13.3,12.679,14.843,20.287,3.643,25.891-27.827,5.646-31.461l-.4-.068c18.985,3.8,13.524,33.583-5.79,30.117C186.988,112.932,183.184,107.108,182.77,100.946Z" transform="translate(-65.056 -60.355)" fill="#dbdbdb"/>
      <path id="Path_8885" data-name="Path 8885" d="M200.92,87.577a.642.642,0,0,1,.516.752l-.194,1.048a8.766,8.766,0,0,1,4.345,2.722.769.769,0,0,1,.262.676.685.685,0,0,1-.845.533.659.659,0,0,1-.439-.279,7.608,7.608,0,0,0-3.635-2.443l-1.378,7.379c3.855,1.589,5.258,3.381,4.776,5.985-.516,2.8-3.229,4.336-6.542,3.829l-.389,2.054a.642.642,0,1,1-1.26-.237l.389-2.079a10.143,10.143,0,0,1-5.46-3.66.718.718,0,0,1-.186-.609.71.71,0,0,1,.786-.541.718.718,0,0,1,.439.279,8.69,8.69,0,0,0,4.691,3.381l1.395-7.515c-3.787-1.606-5.156-3.381-4.657-5.993s3.187-4.226,6.416-3.745l.194-1a.642.642,0,0,1,.778-.541Zm-2.443,9.907,1.344-7.193c-2.536-.423-4.539.786-4.894,2.688S195.206,96.03,198.477,97.484Zm.845,1.826-1.352,7.269c2.646.44,4.641-.769,5.012-2.772.355-1.817-.363-3.094-3.643-4.5Z" transform="translate(-66.31 -60.866)" fill="#dbdbdb"/>
      <rect id="Rectangle_4222" data-name="Rectangle 4222" width="175.632" height="84.596" transform="translate(9.108 151.102) rotate(5.03)" fill="#ebebeb"/>
      <path id="Path_8886" data-name="Path 8886" d="M227.861,250.175l-5.291-.465-164.348-14.5-5.308-.473-.465,5.292L45.965,313.7l-.465,5.308,5.292.465,164.365,14.471,5.283.465h0l7.43-84.274Zm-12.24,78.51L51.265,314.171,57.757,240.5,222.1,254.985Z" transform="translate(-43.818 -83.638)" fill="#dbdbdb"/>
      <ellipse id="Ellipse_330" data-name="Ellipse 330" cx="28.689" cy="24.598" rx="28.689" ry="24.598" transform="translate(65.754 228.375) rotate(-84.97)" fill="#dbdbdb"/>
      <path id="Path_8887" data-name="Path 8887" d="M102.8,287.163a6.593,6.593,0,1,1-1.5-4.826A6.593,6.593,0,0,1,102.8,287.163Z" transform="translate(-50.648 -90.636)" fill="#dbdbdb"/>
      <path id="Path_8888" data-name="Path 8888" d="M214.831,297.038a6.593,6.593,0,1,1-5.993-7.143A6.593,6.593,0,0,1,214.831,297.038Z" transform="translate(-67.98 -92.168)" fill="#dbdbdb"/>
      <path id="Path_8889" data-name="Path 8889" d="M64.044,327.6,52.32,326.566l1.031-11.715A11.766,11.766,0,0,1,64.044,327.6Z" transform="translate(-44.873 -96.033)" fill="#dbdbdb"/>
      <path id="Path_8890" data-name="Path 8890" d="M245.668,331.992l-1.031,11.724-11.707-1.031a11.75,11.75,0,0,1,12.738-10.693Z" transform="translate(-72.817 -98.677)" fill="#dbdbdb"/>
      <path id="Path_8891" data-name="Path 8891" d="M240.552,257.46l11.724,1.031-1.031,11.716a11.758,11.758,0,0,1-10.693-12.747Z" transform="translate(-73.989 -87.153)" fill="#dbdbdb"/>
      <path id="Path_8892" data-name="Path 8892" d="M58.77,253.274l1.04-11.724,11.716,1.031A11.758,11.758,0,0,1,58.77,253.274Z" transform="translate(-45.871 -84.691)" fill="#dbdbdb"/>
      <path id="Path_8893" data-name="Path 8893" d="M153,269.42a1.2,1.2,0,0,1,1.074,1.285l-.169,1.97a16.127,16.127,0,0,1,8.453,4.226,1.37,1.37,0,0,1,.592,1.192,1.268,1.268,0,0,1-1.369,1.116,1.243,1.243,0,0,1-.845-.422,14.032,14.032,0,0,0-7.109-3.855l-1.209,13.8c7.346,2.24,10.253,5.325,9.831,10.144-.465,5.224-5.173,8.529-11.352,8.182l-.338,3.846a1.192,1.192,0,1,1-2.367-.2l.346-3.9a18.536,18.536,0,0,1-10.667-5.757,1.268,1.268,0,0,1-.448-1.082,1.285,1.285,0,0,1,1.335-1.124,1.268,1.268,0,0,1,.845.423,15.966,15.966,0,0,0,9.214,5.333l1.234-14.048c-7.244-2.274-10.067-5.258-9.628-10.143s5.072-8.394,11.132-8.013l.161-1.868A1.209,1.209,0,0,1,153,269.42Zm-2.739,18.6,1.183-13.457c-4.784-.321-8.191,2.266-8.5,5.807-.3,3.39,1.1,5.6,7.32,7.683Zm1.9,3.2-1.192,13.6c4.936.338,8.385-2.24,8.715-5.985.3-3.364-1.242-5.587-7.523-7.582Z" transform="translate(-58.039 -89.003)" fill="#ebebeb"/>
      <rect id="Rectangle_4223" data-name="Rectangle 4223" width="175.632" height="84.596" transform="translate(130.916 69.314) rotate(0.81)" fill="#ebebeb"/>
      <path id="Path_8894" data-name="Path 8894" d="M373.759,140.483l-5.317-.076-164.965-2.341-5.325-.076-.076,5.317-1.04,73.945-.076,5.325,5.317.076,164.973,2.341,5.308.076h0l1.209-84.587Zm-6.432,79.194-164.973-2.35,1.048-73.945,164.973,2.35Z" transform="translate(-67.252 -68.669)" fill="#dbdbdb"/>
      <ellipse id="Ellipse_331" data-name="Ellipse 331" cx="28.689" cy="24.598" rx="28.689" ry="24.598" transform="translate(193.085 142.22) rotate(-89.19)" fill="#dbdbdb"/>
      <path id="Path_8895" data-name="Path 8895" d="M250.717,186.616a6.585,6.585,0,1,1-1.86-4.689A6.593,6.593,0,0,1,250.717,186.616Z" transform="translate(-73.529 -75.157)" fill="#dbdbdb"/>
      <path id="Path_8896" data-name="Path 8896" d="M363.167,188.216a6.593,6.593,0,1,1-6.5-6.686A6.593,6.593,0,0,1,363.167,188.216Z" transform="translate(-90.927 -75.405)" fill="#dbdbdb"/>
      <path id="Path_8897" data-name="Path 8897" d="M215.106,229.867,203.34,229.7l.169-11.758A11.766,11.766,0,0,1,215.106,229.867Z" transform="translate(-68.239 -81.038)" fill="#dbdbdb"/>
      <path id="Path_8898" data-name="Path 8898" d="M396.519,220.7l-.161,11.775-11.758-.169A11.766,11.766,0,0,1,396.519,220.7Z" transform="translate(-96.284 -81.465)" fill="#dbdbdb"/>
      <path id="Path_8899" data-name="Path 8899" d="M385.82,146.94l11.775.169-.169,11.758A11.767,11.767,0,0,1,385.82,146.94Z" transform="translate(-96.472 -70.053)" fill="#dbdbdb"/>
      <path id="Path_8900" data-name="Path 8900" d="M204.38,156.135l.169-11.775,11.758.169A11.766,11.766,0,0,1,204.38,156.135Z" transform="translate(-68.4 -69.654)" fill="#dbdbdb"/>
      <path id="Path_8901" data-name="Path 8901" d="M299.8,165.1a1.208,1.208,0,0,1,1.175,1.209v1.978a16.136,16.136,0,0,1,8.749,3.584,1.378,1.378,0,0,1,.676,1.15,1.268,1.268,0,0,1-1.3,1.217,1.225,1.225,0,0,1-.888-.355,13.992,13.992,0,0,0-7.371-3.322l-.194,13.846c7.489,1.691,10.616,4.556,10.549,9.4-.076,5.249-4.531,8.892-10.718,9l-.051,3.863a1.192,1.192,0,0,1-2.375,0l.059-3.914a18.6,18.6,0,0,1-11.065-4.953,1.251,1.251,0,1,1,1.615-1.91,15.9,15.9,0,0,0,9.552,4.624l.2-14.1c-7.4-1.733-10.423-4.5-10.355-9.442s4.48-8.74,10.515-8.808v-1.876A1.209,1.209,0,0,1,299.8,165.1Zm-1.353,18.782.194-13.525c-4.8,0-8,2.857-8.056,6.424C290.535,180.163,292.091,182.259,298.447,183.882Zm2.139,3.051-.195,13.651c4.945,0,8.2-2.857,8.25-6.61C308.692,190.56,306.993,188.455,300.586,186.933Z" transform="translate(-81.117 -72.863)" fill="#ebebeb"/>
    </g>
    <g id="freepik--Shadow--inject-18" transform="translate(40.979 347.796)">
      <ellipse id="Ellipse_332" data-name="Ellipse 332" cx="176.545" cy="26.762" rx="176.545" ry="26.762" fill="#ebebeb"/>
    </g>
    <g id="freepik--Floor--inject-18" transform="translate(40.1 329.437)">
      <path id="Path_8902" data-name="Path 8902" d="M40.1,380.132l44.352-.211,44.36-.068,88.712-.144,88.712.144,44.36.068,44.352.211-44.352.2-44.36.076-88.712.144-88.712-.144-44.36-.076Z" transform="translate(-40.1 -379.71)" fill="#263238"/>
    </g>
    <g id="freepik--Character--inject-18" transform="translate(45.545 89.983)">
      <path id="Path_8903" data-name="Path 8903" d="M102.14,196.86s10.405,96.024,10.5,98.9c.549,15.917.778,61.621.778,61.621l34.656-.093s.9-52.712-.566-66.422c-1.834-17.472-13.2-93.885-13.2-93.885Z" transform="translate(-55.144 -111.966)" fill="#d3766a"/>
      <path id="Path_8904" data-name="Path 8904" d="M174.293,421.421c-1.86.625-55.011.609-57.039-.676-.761-.473-1.209-8.224-1.488-17.59-.068-2.02-.11-4.108-.144-6.238-.051-2.536-.093-5.071-.11-7.523-.093-11.1,0-20.879,0-20.879l34.6-.084v28.4l-.169,6.238s20.346,9.112,22.417,10.752S176.144,420.8,174.293,421.421Z" transform="translate(-57.207 -138.511)" fill="#d3766a"/>
      <path id="Path_8905" data-name="Path 8905" d="M174.3,425.241c-1.86.625-55.011.609-57.039-.676-.761-.473-1.209-8.225-1.488-17.59-.068-2.02-.11-4.108-.144-6.239-.051-2.536-.093-5.072-.11-7.523l34.656-.093v7.531l-.169,6.239s20.346,9.112,22.417,10.751S176.152,424.624,174.3,425.241Z" transform="translate(-57.214 -142.331)" fill="#ebebeb"/>
      <path id="Path_8906" data-name="Path 8906" d="M174.438,426.684c-1.209.406-23.845.541-40.328.245-3.821-.068-7.3-.169-10.143-.279-3.88-.169-6.483-.372-6.906-.642-.938-.6-1.412-11.969-1.691-23.955l34.766-.093-.161,6.272s20.456,9.154,22.544,10.811S176.3,426.059,174.438,426.684Z" transform="translate(-57.191 -143.699)" fill="#ffc727"/>
      <path id="Path_8907" data-name="Path 8907" d="M174.449,428.659c-8.96-.228-45.113-.279-53.98.177-.076,0-.076.059,0,.059,8.867.414,45.02.177,53.98-.093C174.635,428.794,174.635,428.659,174.449,428.659Z" transform="translate(-57.971 -147.803)" fill="#263238"/>
      <path id="Path_8908" data-name="Path 8908" d="M155.945,406.953c-3.525-.659-7.836-.118-10.532,2.392-.1.1,0,.245.152.211a49.1,49.1,0,0,1,10.363-2.155.228.228,0,0,0,.017-.448Z" transform="translate(-61.833 -144.432)" fill="#263238"/>
      <path id="Path_8909" data-name="Path 8909" d="M158.955,408.793c-3.525-.659-7.836-.118-10.532,2.392-.1.093,0,.245.152.2a49.641,49.641,0,0,1,10.363-2.147.228.228,0,0,0,.017-.448Z" transform="translate(-62.299 -144.716)" fill="#263238"/>
      <path id="Path_8910" data-name="Path 8910" d="M161.965,410.6c-3.525-.659-7.836-.118-10.532,2.392-.1.1,0,.245.152.211a49.119,49.119,0,0,1,10.363-2.156.228.228,0,0,0,.017-.448Z" transform="translate(-62.764 -144.996)" fill="#263238"/>
      <path id="Path_8911" data-name="Path 8911" d="M164.975,412.423c-3.525-.659-7.836-.118-10.532,2.392-.1.093,0,.245.152.2a49.645,49.645,0,0,1,10.363-2.147.228.228,0,0,0,.017-.448Z" transform="translate(-63.23 -145.278)" fill="#263238"/>
      <path id="Path_8912" data-name="Path 8912" d="M103.7,426.572c-1.919.414-54.74-5.444-56.634-6.94-.71-.558-.3-8.309.448-17.649.161-2.012,8.453-34.462,8.453-34.462l35.62,3.711-9.974,34.437s19.222,11.284,21.132,13.153S105.6,426.166,103.7,426.572Z" transform="translate(-46.565 -138.37)" fill="#d3766a"/>
      <path id="Path_8913" data-name="Path 8913" d="M47.083,423.364c1.868,1.488,54.7,7.346,56.634,6.94s.845-5.917-1.014-7.76S81.57,409.383,81.57,409.383l3.736-12.831L50.844,391.59c-1.5,6.052-3.28,13.355-3.381,14.116C46.778,415.055,46.381,422.806,47.083,423.364Z" transform="translate(-46.568 -142.095)" fill="#ebebeb"/>
      <path id="Path_8914" data-name="Path 8914" d="M103.816,431.823c-1.243.262-23.761-2.088-40.109-4.227-3.787-.49-7.236-.972-10.025-1.395-3.838-.592-6.4-1.082-6.762-1.395-.7-.566-.389-8.52.609-17.708a36.1,36.1,0,0,1,1.412-6.289l34.234,4.531-1.589,5.452s19.332,11.352,21.217,13.22S105.735,431.4,103.816,431.823Z" transform="translate(-46.542 -143.521)" fill="#ffc727"/>
      <path id="Path_8915" data-name="Path 8915" d="M103.845,433.828c-8.875-1.2-44.8-5.232-53.675-5.748-.076,0-.076.042,0,.059,8.774,1.386,44.741,5.123,53.667,5.841C104.022,433.989,104.031,433.853,103.845,433.828Z" transform="translate(-47.094 -147.74)" fill="#263238"/>
      <path id="Path_8916" data-name="Path 8916" d="M87.788,410.321c-3.432-1.04-7.777-.972-10.727,1.226-.118.084,0,.245.118.219a49.633,49.633,0,0,1,10.549-.972.238.238,0,1,0,.059-.473Z" transform="translate(-51.256 -144.892)" fill="#263238"/>
      <path id="Path_8917" data-name="Path 8917" d="M90.578,412.46c-3.432-1.04-7.776-.981-10.727,1.217-.118.084,0,.245.127.228A49.521,49.521,0,0,1,90.519,412.9a.228.228,0,0,0,.059-.439Z" transform="translate(-51.688 -145.222)" fill="#263238"/>
      <path id="Path_8918" data-name="Path 8918" d="M93.368,414.591c-3.432-1.04-7.777-.972-10.727,1.226-.118.085,0,.245.127.22a49.516,49.516,0,0,1,10.541-1,.228.228,0,0,0,.059-.448Z" transform="translate(-52.119 -145.552)" fill="#263238"/>
      <path id="Path_8919" data-name="Path 8919" d="M96.167,416.73c-3.432-1.04-7.777-.98-10.735,1.218-.11.084,0,.245.127.228A49.506,49.506,0,0,1,96.1,417.17a.228.228,0,0,0,.068-.44Z" transform="translate(-52.552 -145.883)" fill="#263238"/>
      <path id="Path_8920" data-name="Path 8920" d="M125.632,196.974s-.33,11.834-5.714,18.6c-1.285,1.623-7.422,9.45-9.467,10.989,0,0-5.165,59.457-6.069,70.158-1.234,14.674-16.06,63.168-16.06,63.168L53.58,354.94s11.961-45.028,15.3-59.17c.769-3.263,7.608-67.732,7.109-69.076C70.443,212.764,80.7,196.83,80.7,196.83Z" transform="translate(-47.631 -111.961)" fill="#d3766a"/>
      <path id="Path_8921" data-name="Path 8921" d="M128.591,196.969s13.863,90.31,14.37,94.773a115.708,115.708,0,0,1-28.232,8.106c-17.007,2.781-49.508-8.681-49.508-8.681S76.4,230.045,76.4,229.69a47.485,47.485,0,0,1,6.1-32.89Z" transform="translate(-49.432 -111.957)" fill="#263238"/>
      <path id="Path_8922" data-name="Path 8922" d="M129.1,248.873c-1.767,5.52-3.516,11.065-5.156,16.627s-3.28,10.988-4.514,16.593c-.7,3.178-1.251,6.373-1.817,9.577a.11.11,0,0,0,.211.051c.795-2.789,1.691-5.553,2.417-8.36s1.462-5.613,2.164-8.453c1.395-5.553,2.7-11.132,4.159-16.677.845-3.136,1.741-6.247,2.646-9.357C129.233,248.83,129.123,248.8,129.1,248.873Z" transform="translate(-57.537 -120.007)" fill="#37474f"/>
      <path id="Path_8923" data-name="Path 8923" d="M131.281,239.531q-1.8,3.056-3.381,6.238c-.5,1.04-.981,2.079-1.454,3.128-.245.558-.482,1.124-.71,1.691a7.464,7.464,0,0,0-.566,1.555c0,.059.068.118.11.059a7.36,7.36,0,0,0,.727-1.344c.271-.541.549-1.082.845-1.631q.769-1.6,1.572-3.17c1.057-2.122,2.122-4.226,3.2-6.331a.2.2,0,1,0-.347-.194Z" transform="translate(-58.707 -118.552)" fill="#37474f"/>
      <path id="Path_8924" data-name="Path 8924" d="M131.663,97.461s-10.87-3.939-16.66,3.559c-6.517,8.453-3.5,15.13-4.632,25.358s-9.214,13.939-7.667,21.03,10.777,6.035,10.777,6.035,1.691,8.148,9.543,8.9a13.525,13.525,0,0,0,12.02-5.308s5.832,3.44,10.388.6c3.736-2.333,2.536-8.892,2.536-8.892s5.57,1.369,7.481-3.567c1.995-5.122-6.441-8.622-8.918-15.291-2.248-6.035-3.28-22.138-6.627-27.4S131.663,97.461,131.663,97.461Z" transform="translate(-55.201 -96.427)" fill="#263238"/>
      <path id="Path_8925" data-name="Path 8925" d="M113.077,155.562c-3.381.685-7.5.524-10.025-2.164-2.341-2.494-1.978-6.314-.7-9.23,1.395-3.178,3.7-5.849,5.283-8.926a27.826,27.826,0,0,0,2.882-9.763c.431-4.091-.524-8.343.609-12.358,0-.059-.068-.076-.076,0-1.124,3.66-.44,7.523-.769,11.276a27.969,27.969,0,0,1-3.246,10.752c-1.691,3.161-4.226,5.917-5.511,9.3-1.141,2.942-1.276,6.576.9,9.087a8.258,8.258,0,0,0,4.412,2.536,14.471,14.471,0,0,0,6.28-.287C113.195,155.672,113.161,155.545,113.077,155.562Z" transform="translate(-54.923 -99.002)" fill="#263238"/>
      <path id="Path_8926" data-name="Path 8926" d="M162.854,140.433a16.064,16.064,0,0,0-2.9-3.153,23.97,23.97,0,0,1-3.1-3.314c-3.736-5-5.139-11.217-6.492-17.185a72.54,72.54,0,0,0-3.144-10.989c0-.085-.161,0-.127,0,2.46,6.027,2.916,12.6,4.7,18.816a31.8,31.8,0,0,0,3.339,7.979,20.767,20.767,0,0,0,2.536,3.381c.989,1.057,2.139,1.953,3.187,2.959a8.756,8.756,0,0,1,2.62,4.049,6.644,6.644,0,0,1-.761,5.072s0,.042.042,0A7.287,7.287,0,0,0,162.854,140.433Z" transform="translate(-62.098 -97.87)" fill="#263238"/>
      <path id="Path_8927" data-name="Path 8927" d="M153.806,156.244c0-.076-.152,0-.11.068,1.429,2.773,2.4,6.323.313,9.028a7.608,7.608,0,0,1-7.608,2.7,10.64,10.64,0,0,1-4.717-2.257c-.11-.084-.262.068-.152.161,2.417,2.046,5.782,3.3,8.943,2.384a7.024,7.024,0,0,0,5.182-6.238C155.784,159.972,154.719,158.07,153.806,156.244Z" transform="translate(-61.233 -105.677)" fill="#263238"/>
      <path id="Path_8928" data-name="Path 8928" d="M129.546,146.38c5.182,16.593,14.64,34.809,20.346,36.964,6.094,2.308,29.712-.845,37.911-2.916,2.68-.676-5.427-19.442-8.123-20.693s-21.31,3.821-23.068,3.381c-.938-.237-12.265-13.778-20.337-21.783C129.064,134.183,127.856,140.954,129.546,146.38Z" transform="translate(-59.28 -102.896)" fill="#d3766a"/>
      <path id="Path_8929" data-name="Path 8929" d="M194.492,182.729c2.781-.507,15.316-3.947,18.6-5.68s12.341-7.422,11.268-10.067-3.863-1.192-3.863-1.192,3.449-3.009,2.122-5.57-5.587-.161-5.587-.161,3.313-3.381,1.809-5.807-5.384.668-5.384.668,3.178-2.916,1.082-4.421c-2.536-1.817-7.76,4.226-11.521,5.875-.845.372-17.852,6.348-17.852,6.348Z" transform="translate(-67.989 -104.74)" fill="#d3766a"/>
      <path id="Path_8930" data-name="Path 8930" d="M216.813,155.461c-3.871,4.438-6.323,5.706-11.876,7.362-.11,0-.085.2,0,.178,5.579-1.133,8.892-2.282,12.071-7.362C217.219,155.394,217.024,155.25,216.813,155.461Z" transform="translate(-71.037 -105.545)" fill="#263238"/>
      <path id="Path_8931" data-name="Path 8931" d="M220.878,161.436c-4.421,4.226-7.075,5.647-12.764,7.81a.085.085,0,0,0,.051.152c5.748-1.691,9.027-2.882,12.891-7.709C221.224,161.471,221.072,161.242,220.878,161.436Z" transform="translate(-71.535 -106.474)" fill="#263238"/>
      <path id="Path_8932" data-name="Path 8932" d="M224.179,168.746c-4.573,3.8-7.422,5.469-13.2,6.864a.11.11,0,0,0,0,.211c6.044-.845,9.6-2.891,13.271-6.923C224.508,168.619,224.508,168.5,224.179,168.746Z" transform="translate(-71.971 -107.595)" fill="#263238"/>
      <path id="Path_8933" data-name="Path 8933" d="M181,162.591s4.759-5.63,7.4-7.608,15.215-5.917,16.2-3.221c1.285,3.44-5.537,7.117-9.112,8.453,0,0,2.967,7.971-1.353,11.665S181,162.591,181,162.591Z" transform="translate(-67.345 -104.847)" fill="#d3766a"/>
      <path id="Path_8934" data-name="Path 8934" d="M207.048,153.14c-1.1,3.99-5.917,5.477-9.3,7.058a.338.338,0,0,0-.118.541c1.023,3.423,1.471,8.554-.846,11.5a.087.087,0,0,0,.127.118c2.95-2.823,2.925-7.895,1.564-11.572,3.482-1.572,8.241-3.271,8.63-7.608Z" transform="translate(-69.784 -105.201)" fill="#263238"/>
      <path id="Path_8935" data-name="Path 8935" d="M150.069,153.281l-14.218,12.333s-6.889-13.6-7.7-21.977,3.212-7.608,8.022-3.694S150.069,153.281,150.069,153.281Z" transform="translate(-59.152 -102.722)" fill="#ffc727"/>
      <path id="Path_8936" data-name="Path 8936" d="M137.058,149.861a.735.735,0,1,1-.735-.735A.735.735,0,0,1,137.058,149.861Zm8.7-.642a.727.727,0,1,0,.981.989Zm-14.311-7.329a.735.735,0,1,0,.735.735A.735.735,0,0,0,131.445,141.89Zm4.877,21.91a.735.735,0,1,0,.735.735A.735.735,0,0,0,136.323,163.8Zm4.886-7.236a.735.735,0,1,0,.735.735A.735.735,0,0,0,141.208,156.564Z" transform="translate(-59.564 -103.461)" fill="#fff"/>
      <path id="Path_8937" data-name="Path 8937" d="M148.2,154.541c.093-.085.178-.051.093,0a125.885,125.885,0,0,1-11.986,10.3s-.059,0,0-.051C138.013,162.892,147.192,155.445,148.2,154.541Z" transform="translate(-60.426 -105.41)" fill="#263238"/>
      <path id="Path_8938" data-name="Path 8938" d="M145.259,157.722l-9.408,8.157s-6.889-13.6-7.7-21.977a10.808,10.808,0,0,1,.38-5.072Z" transform="translate(-59.152 -102.987)" opacity="0.1"/>
      <path id="Path_8939" data-name="Path 8939" d="M132.232,174.448l-.482,13.034-46.11-.169s10.4-38.536,24.141-48.756c6.881-5.114,13.524-3.381,16.906,1.75.845,1.3,10.2,17.489,10.321,24.26C137.143,170.517,132.232,174.448,132.232,174.448Z" transform="translate(-52.591 -102.469)" fill="#ffc727"/>
      <path id="Path_8940" data-name="Path 8940" d="M110.618,149.861a.735.735,0,1,1-.735-.735A.735.735,0,0,1,110.618,149.861Zm9.028-.735a.735.735,0,1,0,.735.735A.735.735,0,0,0,119.645,149.126Zm9.763,0a.735.735,0,1,0,.735.735A.735.735,0,0,0,129.408,149.126Zm-14.666-7.236a.735.735,0,1,0,.735.735A.735.735,0,0,0,114.743,141.89Zm9.763,0a.723.723,0,1,0,.025,0ZM100.119,163.8a.735.735,0,1,0,.735.735A.736.736,0,0,0,100.119,163.8Zm9.763,0a.735.735,0,1,0,.735.735A.736.736,0,0,0,109.882,163.8Zm9.763,0a.735.735,0,1,0,.735.735A.735.735,0,0,0,119.645,163.8Zm9.763,0a.735.735,0,1,0,.735.735A.735.735,0,0,0,129.408,163.8ZM105,156.564a.735.735,0,1,0,.735.735A.736.736,0,0,0,105,156.564Zm9.763,0a.768.768,0,1,1-.025,0Zm9.763,0a.735.735,0,1,0,.735.735A.735.735,0,0,0,124.531,156.564Zm10.076.076h0a.769.769,0,0,0-.313-.068.735.735,0,1,0,0,1.471.727.727,0,0,0,.685-.473C134.86,157.257,134.733,156.953,134.607,156.64Zm-44.25,21.834a.735.735,0,1,0,.718.7A.736.736,0,0,0,90.356,178.474Zm9.763,0a.735.735,0,1,0,.735.735A.735.735,0,0,0,100.119,178.474Zm9.763,0a.735.735,0,1,0,.735.735A.736.736,0,0,0,109.882,178.474Zm9.763,0a.735.735,0,1,0,.735.735A.735.735,0,0,0,119.645,178.474Zm9.763,0a.735.735,0,1,0,.735.735A.735.735,0,0,0,129.408,178.474Zm-34.166-7.236a.735.735,0,1,0,.735.735A.736.736,0,0,0,95.242,171.238Zm9.763,0a.735.735,0,1,0,.735.735A.735.735,0,0,0,105,171.238Zm9.763,0a.768.768,0,1,1-.025,0Zm9.763,0a.735.735,0,1,0,.735.735A.735.735,0,0,0,124.531,171.238Zm9.763,0a.735.735,0,1,0,.735.735A.735.735,0,0,0,134.294,171.238ZM86.2,186.521c-.059.228-.118.431-.178.617a.709.709,0,0,0,.194-.49A.333.333,0,0,0,86.2,186.521Zm9.044-.609a.723.723,0,1,1,0,.025Zm9.763,0a.723.723,0,1,1,0,.025Zm9.738.025a.735.735,0,1,0,.735.735A.735.735,0,0,0,114.743,185.938Zm9.763,0a.723.723,0,1,0,.025,0Z" transform="translate(-52.65 -103.461)" fill="#fff"/>
      <path id="Path_8941" data-name="Path 8941" d="M123.617,179.429a41.786,41.786,0,0,1,6.086-.1c1.006.076,2,.186,3.009.33.5.068.989.118,1.5.169a6.514,6.514,0,0,0,1.572,0v.068a10.7,10.7,0,0,1-1.471.237,9.185,9.185,0,0,1-1.445,0c-1.023-.059-2.037-.169-3.06-.245-2.062-.152-4.125-.3-6.2-.3C123.524,179.6,123.524,179.438,123.617,179.429Z" transform="translate(-58.456 -109.243)" fill="#263238"/>
      <path id="Path_8942" data-name="Path 8942" d="M118.18,182.332a43.678,43.678,0,0,1,4.894-1.141c.845-.135,1.691-.228,2.536-.3l1.192-.084h1.327a.038.038,0,1,1,0,.076,7.378,7.378,0,0,0-1.234.211l-1.234.195-2.477.389c-1.691.237-3.305.5-4.953.845C118.113,182.484,118.1,182.348,118.18,182.332Z" transform="translate(-57.618 -109.483)" fill="#263238"/>
      <path id="Path_8943" data-name="Path 8943" d="M122.7,135.731c.118.845,3.652,6.762,7.557,6.974,1.276.059,1.91-6.872,1.91-6.872l.161-.5,2.3-7.016-7.9-6.213-1.15-.845s-.5,1.961-1.1,4.4a1.727,1.727,0,0,1-.085.347c-.025.118-.076.27-.1.4-.093.364-.194.735-.279,1.116s-.135.558-.194.845l-.194.9A47.693,47.693,0,0,0,122.7,135.731Z" transform="translate(-58.325 -100.269)" fill="#d3766a"/>
      <path id="Path_8944" data-name="Path 8944" d="M124.8,125.681a14.835,14.835,0,0,0,7.853,9.653l2.3-7.016-7.9-6.213-1.15-.845S125.4,123.238,124.8,125.681Z" transform="translate(-58.65 -100.269)" fill="#263238"/>
      <path id="Path_8945" data-name="Path 8945" d="M146.857,114.412c.287,12.95-7.43,14.581-10.228,14.64-2.536.051-11.166-.085-12.789-12.933s4.311-17.075,10.143-17.506S146.578,101.47,146.857,114.412Z" transform="translate(-58.459 -96.759)" fill="#d3766a"/>
      <path id="Path_8946" data-name="Path 8946" d="M147.44,112.757a7.929,7.929,0,0,1-.888-.1,1.386,1.386,0,0,1-.845-.27.474.474,0,0,1-.059-.558,1.175,1.175,0,0,1,1.1-.38,1.691,1.691,0,0,1,1.107.49.49.49,0,0,1-.414.82Z" transform="translate(-61.866 -98.747)" fill="#263238"/>
      <path id="Path_8947" data-name="Path 8947" d="M137.112,113.189a7.741,7.741,0,0,0,.845-.186,1.445,1.445,0,0,0,.845-.364.456.456,0,0,0,0-.558,1.158,1.158,0,0,0-1.124-.271,1.69,1.69,0,0,0-1.056.6.49.49,0,0,0,.49.778Z" transform="translate(-60.463 -98.8)" fill="#263238"/>
      <path id="Path_8948" data-name="Path 8948" d="M139.423,117.36s-.068.051-.068.085c.051.845,0,1.893-.845,2.206v.051C139.507,119.541,139.609,118.188,139.423,117.36Z" transform="translate(-60.771 -99.666)" fill="#263238"/>
      <path id="Path_8949" data-name="Path 8949" d="M138.429,116.3c-1.42-.076-1.462,2.772-.144,2.84S139.587,116.359,138.429,116.3Z" transform="translate(-60.588 -99.501)" fill="#263238"/>
      <path id="Path_8950" data-name="Path 8950" d="M137.689,116.451c-.254.152-.5.431-.8.456s-.6-.271-.845-.558h-.051c0,.541.186,1.107.769,1.192s.921-.389,1.065-.938C137.85,116.536,137.765,116.384,137.689,116.451Z" transform="translate(-60.381 -99.509)" fill="#263238"/>
      <path id="Path_8951" data-name="Path 8951" d="M145.616,117.21s.068.042.068.076c-.051.845,0,1.9.845,2.206v.051C145.54,119.382,145.43,118.038,145.616,117.21Z" transform="translate(-61.859 -99.642)" fill="#263238"/>
      <path id="Path_8952" data-name="Path 8952" d="M146.422,116.14c1.42-.076,1.471,2.773.152,2.84S145.239,116.2,146.422,116.14Z" transform="translate(-61.862 -99.476)" fill="#263238"/>
      <path id="Path_8953" data-name="Path 8953" d="M147.263,116.319c.228.144.456.414.727.431s.532-.3.727-.6h.042c0,.541-.144,1.116-.668,1.226s-.845-.355-.972-.9C147.094,116.412,147.17,116.26,147.263,116.319Z" transform="translate(-62.102 -99.478)" fill="#263238"/>
      <path id="Path_8954" data-name="Path 8954" d="M139.466,125.847c.169.245.321.566.625.659a2.358,2.358,0,0,0,.972,0s.051,0,0,.051a1.175,1.175,0,0,1-1.158.262.939.939,0,0,1-.516-.9C139.373,125.821,139.44,125.813,139.466,125.847Z" transform="translate(-60.907 -100.976)" fill="#263238"/>
      <path id="Path_8955" data-name="Path 8955" d="M143.628,120.434s.178,1.319.178,1.944c0,.051-.152.085-.364.093h0a2.95,2.95,0,0,1-2.865-1.107c-.042-.059,0-.127.093-.085a4.471,4.471,0,0,0,2.7.778c.042-.169-.38-2.248-.279-2.257a5.5,5.5,0,0,1,1.4.33c-.287-2.756-1.023-5.444-1.268-8.191a.085.085,0,0,1,.161,0,44.8,44.8,0,0,1,1.741,8.766C145.158,120.984,143.874,120.519,143.628,120.434Z" transform="translate(-61.088 -98.818)" fill="#263238"/>
      <path id="Path_8956" data-name="Path 8956" d="M143.294,124.066a3.652,3.652,0,0,1-1.429,1.15,1.606,1.606,0,0,1-.981.085c-.719-.177-.752-.845-.634-1.395a4.018,4.018,0,0,1,.3-.845A4.682,4.682,0,0,0,143.294,124.066Z" transform="translate(-61.032 -100.547)" fill="#263238"/>
      <path id="Path_8957" data-name="Path 8957" d="M141.865,125.37a1.606,1.606,0,0,1-.981.085c-.719-.178-.752-.845-.634-1.395A1.69,1.69,0,0,1,141.865,125.37Z" transform="translate(-61.032 -100.702)" fill="#ff9bbc"/>
      <path id="Path_8958" data-name="Path 8958" d="M125.384,119.818s-2.536-4.226-4.455-3.33-.152,6.872,1.944,7.81a2.189,2.189,0,0,0,3-.981Z" transform="translate(-57.924 -99.511)" fill="#d3766a"/>
      <path id="Path_8959" data-name="Path 8959" d="M121.72,118.53v.051a5.544,5.544,0,0,1,2.637,3.643,1.217,1.217,0,0,0-1.784-.448v.085a1.336,1.336,0,0,1,1.445.566,6.138,6.138,0,0,1,.634,1.243c.059.135.313.085.271-.076C125.093,121.641,123.774,118.851,121.72,118.53Z" transform="translate(-58.173 -99.847)" fill="#263238"/>
      <path id="Path_8960" data-name="Path 8960" d="M124,115.435c1.4-.051,5.131-3.829,5.393-10.591,0,0-.651,6.061-1.133,6.94s2.088-2.122,2.375-7.608a22.162,22.162,0,0,0,5.537,3.018c2.536.778,4.133.786,4.319.609s-3.576-1.462-4.573-2.663c0,0,6.762,3.33,9.932,3.643.372,0,.964-7.472-3.846-10.769s-12.628,0-14.75,1.953c0,0-2.451.3-5.182,3.846S122.487,115.536,124,115.435Z" transform="translate(-58.061 -96.455)" fill="#263238"/>
      <path id="Path_8961" data-name="Path 8961" d="M105.8,143.081c-10.143,13.144-20.008,35.95-18.934,42.5,1.513,9.3,26.753,25.578,34.141,29.154,2.773,1.344,11.158-22.865,8.216-24.336-4.683-2.341-21.276-12.679-21.512-14.522-.152-1.133,4.176-16.77,6.416-27.049C117.135,135.093,109.248,138.6,105.8,143.081Z" transform="translate(-52.768 -103.029)" fill="#d3766a"/>
      <path id="Path_8962" data-name="Path 8962" d="M164.361,211.353a5.748,5.748,0,0,1-2.477,3.043,5.688,5.688,0,0,1,1.006,3.728c-.3,2.316-4.066,2.849-4.066,2.849a6.981,6.981,0,0,1,.431,4.1c-.507,2.181-4.226,3.263-4.226,3.263a6.085,6.085,0,0,1-1.885,3.846c-2.958,2.587-8.723.845-12.392-.237s-13.1-7.557-15.012-8.613l6.669-23.6s17.827.135,21.977,2.012C157.861,203.339,165.367,208.36,164.361,211.353Z" transform="translate(-58.795 -112.41)" fill="#d3766a"/>
      <path id="Path_8963" data-name="Path 8963" d="M166.44,215.9a53.167,53.167,0,0,0-10.989-6.01.07.07,0,1,0-.059.127c3.8,1.615,7.244,4.286,10.989,6.052a.1.1,0,0,0,.059-.169Z" transform="translate(-63.377 -113.98)" fill="#263238"/>
      <path id="Path_8964" data-name="Path 8964" d="M162.817,223.726a10.928,10.928,0,0,0-2.587-1.2c-.947-.364-1.893-.7-2.857-1.031-1.91-.659-3.838-1.276-5.782-1.834-.085,0-.144.1-.059.127,1.91.668,3.8,1.353,5.68,2.1.938.363,1.877.744,2.806,1.133a13.431,13.431,0,0,0,2.688.964.144.144,0,0,0,.11-.254Z" transform="translate(-62.78 -115.493)" fill="#263238"/>
      <path id="Path_8965" data-name="Path 8965" d="M158.4,232.878a7.4,7.4,0,0,0-2.392-.955l-2.629-.845c-1.75-.583-3.5-1.167-5.224-1.818-.085,0-.144.1-.059.135,1.758.659,3.5,1.352,5.258,2l2.6.938a7.024,7.024,0,0,0,2.426.642.052.052,0,1,0,.026-.1Z" transform="translate(-62.247 -116.979)" fill="#263238"/>
      <path id="Path_8966" data-name="Path 8966" d="M112.7,163.993,94.65,158.66s7.743-13.136,14.37-18.326,8.115-1.378,7.447,4.767S112.7,163.993,112.7,163.993Z" transform="translate(-53.985 -102.843)" fill="#ffc727"/>
      <path id="Path_8967" data-name="Path 8967" d="M102.4,149.87a.735.735,0,0,1-1.42.254l.735-.981A.727.727,0,0,1,102.4,149.87Zm9.028-.744a.735.735,0,1,0,.735.735A.735.735,0,0,0,111.431,149.126Zm-4.818-5.773a.727.727,0,0,0,.668-.668C107.061,142.9,106.833,143.124,106.613,143.352Zm10.143-1.285a.726.726,0,0,0-.473-.178.735.735,0,0,0,0,1.471.685.685,0,0,0,.524-.228,6.345,6.345,0,0,0-.017-1.065ZM111.4,163.8a.709.709,0,0,0-.516.22l1.234.363a.735.735,0,0,0-.685-.583Zm-14.64-7.236a.784.784,0,0,0-.245.042h0c-.177.262-.33.516-.482.744a.727.727,0,0,0,.727.676.735.735,0,0,0,0-1.471Zm9.763,0a.719.719,0,1,0,.034,0Z" transform="translate(-54.199 -103.461)" fill="#fff"/>
      <path id="Path_8968" data-name="Path 8968" d="M112.69,163.9c.118,0,.127.118,0,.093a127.331,127.331,0,0,1-15.13-4.539v-.068C100.163,159.821,111.38,163.54,112.69,163.9Z" transform="translate(-54.435 -106.168)" fill="#263238"/>
      <path id="Path_8969" data-name="Path 8969" d="M118.974,152.062c-.9,4.759-2,9.738-3.026,14.37,0,.084-.752-.279-1.057-.4-.118-.051,0-.161.076-.127a3.624,3.624,0,0,0,.685.135c1.04-4.674,2.088-9.349,3.271-13.989C118.931,152,118.982,152,118.974,152.062Z" transform="translate(-57.109 -105.028)" fill="#263238"/>
    </g>
    <g id="freepik--Wallet--inject-18" transform="translate(150.536 120.053)">
      <rect id="Rectangle_4224" data-name="Rectangle 4224" width="181.431" height="87.385" transform="translate(4.786 21.11) rotate(-6.66)" fill="#ffc727"/>
      <rect id="Rectangle_4225" data-name="Rectangle 4225" width="181.431" height="87.385" transform="translate(4.786 21.11) rotate(-6.66)" opacity="0.1"/>
      <path id="Path_8970" data-name="Path 8970" d="M356.625,132l-5.452.642L181.889,152.464l-5.469.634.642,5.461,8.867,75.872.642,5.469,5.452-.642L361.316,219.47l5.452-.634h0L356.642,132Zm4.057,81.992-169.293,19.8-8.859-75.872,169.276-19.771Z" transform="translate(-171.627 -132)" opacity="0.1"/>
      <ellipse id="Ellipse_333" data-name="Ellipse 333" cx="25.409" cy="29.636" rx="25.409" ry="29.636" transform="translate(71.413 28.557) rotate(-6.66)" opacity="0.1"/>
      <path id="Path_8971" data-name="Path 8971" d="M236.727,199.549a6.8,6.8,0,1,1-7.548-5.968A6.8,6.8,0,0,1,236.727,199.549Z" transform="translate(-178.86 -141.521)" opacity="0.1"/>
      <path id="Path_8972" data-name="Path 8972" d="M352.117,186.068a6.8,6.8,0,1,1-7.557-5.976A6.8,6.8,0,0,1,352.117,186.068Z" transform="translate(-196.713 -139.434)" opacity="0.1"/>
      <path id="Path_8973" data-name="Path 8973" d="M205.951,248.794l-12.079,1.4-1.412-12.062A12.155,12.155,0,0,1,205.951,248.794Z" transform="translate(-174.109 -148.408)" opacity="0.1"/>
      <path id="Path_8974" data-name="Path 8974" d="M390.766,214.74l1.412,12.054-12.062,1.412A12.155,12.155,0,0,1,390.766,214.74Z" transform="translate(-203.131 -144.802)" opacity="0.1"/>
      <path id="Path_8975" data-name="Path 8975" d="M369.63,140.672,381.7,139.26l1.412,12.062A12.147,12.147,0,0,1,369.63,140.672Z" transform="translate(-201.521 -133.123)" opacity="0.1"/>
      <path id="Path_8976" data-name="Path 8976" d="M185.052,174.474l-1.412-12.079L195.7,161A12.155,12.155,0,0,1,185.052,174.474Z" transform="translate(-172.744 -136.487)" opacity="0.1"/>
      <path id="Path_8977" data-name="Path 8977" d="M284.523,170.769a1.234,1.234,0,0,1,1.361,1.073l.237,2.029a16.637,16.637,0,0,1,9.45,2.494,1.429,1.429,0,0,1,.845,1.09,1.3,1.3,0,0,1-1.166,1.42,1.249,1.249,0,0,1-.955-.245,14.508,14.508,0,0,0-8.005-2.409l1.691,14.209c7.9.719,11.487,3.237,12.071,8.208.625,5.384-3.441,9.721-9.763,10.659l.457,3.964a1.226,1.226,0,0,1-2.435.279l-.465-4.007a19.153,19.153,0,0,1-11.995-3.592,1.31,1.31,0,0,1-.685-1,1.335,1.335,0,0,1,1.124-1.42,1.311,1.311,0,0,1,.955.253,16.458,16.458,0,0,0,10.431,3.457l-1.691-14.463c-7.81-.786-11.276-3.212-11.876-8.284s3.381-9.56,9.586-10.431l-.22-1.936A1.234,1.234,0,0,1,284.523,170.769Zm1.133,19.441-1.615-13.863c-4.911.685-7.819,4.007-7.388,7.658.406,3.423,2.274,5.368,9,6.179Zm2.6,2.832,1.631,14.006c5.072-.693,8.022-4.024,7.565-7.878-.406-3.525-2.434-5.452-9.2-6.154Z" transform="translate(-186.733 -137.997)" fill="#ffc727"/>
      <rect id="Rectangle_4226" data-name="Rectangle 4226" width="66.963" height="33.98" transform="translate(176.461 143.647)" fill="#ffc727"/>
      <circle id="Ellipse_334" data-name="Ellipse 334" cx="7.599" cy="7.599" r="7.599" transform="matrix(0.229, -0.973, 0.973, 0.229, 219.216, 166.29)" fill="#ebebeb"/>
      <circle id="Ellipse_335" data-name="Ellipse 335" cx="4.159" cy="4.159" r="4.159" transform="translate(224.202 156.478)" fill="#dbdbdb"/>
      <rect id="Rectangle_4227" data-name="Rectangle 4227" width="202.681" height="151.33" transform="translate(0.262 83.624)" fill="#ffc727"/>
      <rect id="Rectangle_4228" data-name="Rectangle 4228" width="202.681" height="151.33" transform="translate(0.262 83.624)" opacity="0.1"/>
      <path id="Path_8978" data-name="Path 8978" d="M337.78,139.286,358,230.661a9.476,9.476,0,0,1-7.193,11.285L205.874,274.066a9.458,9.458,0,0,1-11.284-7.21l-20.228-91.409a8.816,8.816,0,0,1,6.7-10.507L327.3,132.583A8.825,8.825,0,0,1,337.78,139.286Z" transform="translate(-171.277 -132.059)" fill="#455a64"/>
      <path id="Path_8979" data-name="Path 8979" d="M357.26,238.339a8.706,8.706,0,1,1-10.389-6.627A8.707,8.707,0,0,1,357.26,238.339Z" transform="translate(-196.944 -147.396)" fill="#a6a6a6"/>
      <path id="Path_8980" data-name="Path 8980" d="M369.65,235.589a8.706,8.706,0,1,1-10.389-6.627A8.706,8.706,0,0,1,369.65,235.589Z" transform="translate(-198.861 -146.97)" fill="#ffc727"/>
      <rect id="Rectangle_4229" data-name="Rectangle 4229" width="31.419" height="21.715" rx="4.2" transform="matrix(0.976, -0.216, 0.216, 0.976, 18.389, 47.43)" fill="#ffc727"/>
      <path id="Path_8981" data-name="Path 8981" d="M346.4,165.484l-13.871,3.068a5.917,5.917,0,0,1-7.1-4.531h0a5.917,5.917,0,0,1,4.522-7.1l13.88-3.068a5.917,5.917,0,0,1,7.1,4.531h0A5.959,5.959,0,0,1,346.4,165.484Z" transform="translate(-194.66 -135.358)" fill="#fff"/>
      <path id="Path_8982" data-name="Path 8982" d="M201.48,236.187l-1.09,1.014a.313.313,0,0,1-.144.085.329.329,0,0,1-.3-.093.3.3,0,0,1,0-.448l1.488-1.42a.33.33,0,0,1,.439,0,.364.364,0,0,1,.093.22l1.809,8.174a.313.313,0,0,1-.237.372.33.33,0,0,1-.38-.237Z" transform="translate(-175.252 -147.973)" fill="#f8f8f8"/>
      <path id="Path_8983" data-name="Path 8983" d="M206.739,242.792l3.322-4.666a2.347,2.347,0,0,0-3.829-2.713l-.338.49a.317.317,0,1,1-.524-.355l.347-.507a3.05,3.05,0,0,1,1.8-1.183,2.981,2.981,0,0,1,3.068,4.632l-2.849,4,4.226-.93a.321.321,0,0,1,.372.254.313.313,0,0,1-.237.372l-4.936,1.082h-.051a.3.3,0,0,1-.254-.042A.338.338,0,0,1,206.739,242.792Z" transform="translate(-176.098 -147.749)" fill="#f8f8f8"/>
      <path id="Path_8984" data-name="Path 8984" d="M219.377,231.755l-1.775,2.874a3.086,3.086,0,0,1,2.637,4.75,3.111,3.111,0,0,1-1.944,1.361,3.009,3.009,0,0,1-2.316-.423.313.313,0,0,1-.1-.44.321.321,0,0,1,.448-.1,2.468,2.468,0,0,0,3.381-.744,2.418,2.418,0,0,0,.33-1.851,2.443,2.443,0,0,0-2.908-1.843.339.339,0,0,1-.279-.076h0a.321.321,0,0,1-.1-.457l1.691-2.764-3.381.752a.325.325,0,1,1-.144-.634l4.159-.922a.33.33,0,0,1,.389.254.269.269,0,0,1,0,.144A.5.5,0,0,1,219.377,231.755Z" transform="translate(-177.544 -147.353)" fill="#f8f8f8"/>
      <path id="Path_8985" data-name="Path 8985" d="M229.828,236.294l-4.818,1.065h0a.262.262,0,0,1-.211,0,.3.3,0,0,1-.127-.423l3.728-7.548h0a.3.3,0,0,1,.423-.135.414.414,0,0,1,.135.135v.085l1.353,6.1.592-.135a.321.321,0,0,1,.389.237.313.313,0,0,1-.254.372l-.592.135.338,1.53a.321.321,0,0,1-.625.135Zm-.135-.609-1.15-5.207-3.06,6.162Z" transform="translate(-179.086 -147.041)" fill="#f8f8f8"/>
      <path id="Path_8986" data-name="Path 8986" d="M243.983,234.145a.3.3,0,0,1-.093-.44.321.321,0,0,1,.456-.1,2.44,2.44,0,0,0,3.677-2.595,2.392,2.392,0,0,0-2.891-1.851,2.417,2.417,0,0,0-1.538,1.073.313.313,0,0,1-.44.1.246.246,0,0,1-.1-.085h0a.289.289,0,0,1,0-.1.175.175,0,0,0,0-.068l-.364-3.677a.3.3,0,0,1,.076-.254.288.288,0,0,1,.186-.127l4.15-.913a.324.324,0,1,1,.135.634l-3.871.845.262,2.722a3.085,3.085,0,0,1,4.691,3.931,3.2,3.2,0,0,1-1.944,1.352A3.1,3.1,0,0,1,243.983,234.145Z" transform="translate(-181.88 -146.405)" fill="#f8f8f8"/>
      <path id="Path_8987" data-name="Path 8987" d="M252.609,225.908a3.694,3.694,0,0,1,2.679-2.62.321.321,0,0,1,.389.228.347.347,0,0,1-.236.4,3.068,3.068,0,0,0-2.232,2.189,5.908,5.908,0,0,0-.245,1.919,2.992,2.992,0,1,1-.287,2.2,4.216,4.216,0,0,1-.152-.583A7.429,7.429,0,0,1,252.609,225.908Zm.676,4.117a.579.579,0,0,0,.068.16.185.185,0,0,1,0,.093,2.4,2.4,0,1,0-.084-.3Z" transform="translate(-183.372 -146.123)" fill="#f8f8f8"/>
      <path id="Path_8988" data-name="Path 8988" d="M263.595,230.253l1.555-8.529-4.286.972a.313.313,0,0,1-.135-.609l4.708-1.04a.345.345,0,0,1,.186,0,.365.365,0,0,1,.211.152c0,.042.042.059.051.1a.322.322,0,0,1,0,.177l-1.632,8.943a.33.33,0,0,1-.236.254.244.244,0,0,1-.135,0,.347.347,0,0,1-.288-.423Z" transform="translate(-184.638 -145.776)" fill="#f8f8f8"/>
      <path id="Path_8989" data-name="Path 8989" d="M272.052,219.612a1.893,1.893,0,0,1,1.834,3.1,2.95,2.95,0,1,1-2.206.49,1.936,1.936,0,0,1-1.065-1.335,1.885,1.885,0,0,1,1.437-2.257Zm1.834,8.292a2.316,2.316,0,1,0-1.761-.306A2.333,2.333,0,0,0,273.886,227.9Zm-1.149-5.19a1.285,1.285,0,0,0,.964-1.53,1.268,1.268,0,1,0-2.476.549A1.285,1.285,0,0,0,272.737,222.714Z" transform="translate(-186.172 -145.548)" fill="#f8f8f8"/>
      <path id="Path_8990" data-name="Path 8990" d="M290.625,215.467a3,3,0,0,1,3.5,1.953v.051c.068.245.135.49.195.761a7.554,7.554,0,0,1-.068,3.736,3.744,3.744,0,0,1-2.688,2.62h0a.3.3,0,0,1-.38-.22.321.321,0,0,1,.228-.4,3.094,3.094,0,0,0,2.24-2.189,5.773,5.773,0,0,0,.237-1.919,3.009,3.009,0,1,1-3.288-4.4Zm2.975,2.409a2.375,2.375,0,1,0-.321,1.793A2.376,2.376,0,0,0,293.6,217.875Z" transform="translate(-188.929 -144.903)" fill="#f8f8f8"/>
      <path id="Path_8991" data-name="Path 8991" d="M298.35,218.43a5.8,5.8,0,0,1,.16-3.3,2.587,2.587,0,0,1,4.455-.989,5.984,5.984,0,0,1,1.555,2.925,5.865,5.865,0,0,1-.186,3.3,2.536,2.536,0,0,1-4.446.98A5.7,5.7,0,0,1,298.35,218.43Zm.625-.135a5.217,5.217,0,0,0,1.361,2.595,1.936,1.936,0,0,0,3.381-.752,5.486,5.486,0,0,0-1.226-5.52,1.936,1.936,0,0,0-3.381.752A5.157,5.157,0,0,0,298.975,218.3Z" transform="translate(-190.467 -144.57)" fill="#f8f8f8"/>
      <path id="Path_8992" data-name="Path 8992" d="M309.311,212.326l-1.09,1.014a.311.311,0,0,1-.144.084.329.329,0,0,1-.3-.093.312.312,0,0,1,0-.448l1.488-1.42a.313.313,0,0,1,.44,0,.363.363,0,0,1,.093.22l1.809,8.174a.313.313,0,0,1-.237.372.321.321,0,0,1-.372-.237Z" transform="translate(-191.936 -144.281)" fill="#f8f8f8"/>
      <path id="Path_8993" data-name="Path 8993" d="M314.61,218.932l3.322-4.674a2.334,2.334,0,0,0,.389-1.868,2.347,2.347,0,0,0-2.79-1.767,2.34,2.34,0,0,0-1.42.921l-.347.49a.311.311,0,1,1-.516-.346l.338-.507a3.051,3.051,0,0,1,1.8-1.183,2.981,2.981,0,0,1,3.069,4.632l-2.849,4,4.227-.93a.321.321,0,0,1,.372.254.312.312,0,0,1-.237.372l-4.953,1.1h-.051a.3.3,0,0,1-.254,0,.338.338,0,0,1-.1-.49Z" transform="translate(-192.788 -144.058)" fill="#f8f8f8"/>
      <path id="Path_8994" data-name="Path 8994" d="M336.222,205.9l-1.775,2.874a3.092,3.092,0,0,1,.685,6.111,3.009,3.009,0,0,1-2.316-.423.313.313,0,0,1-.1-.439.321.321,0,0,1,.448-.1,2.443,2.443,0,1,0,.786-4.438.329.329,0,0,1-.279-.076h0a.338.338,0,0,1-.1-.456l1.69-2.772-3.381.761a.33.33,0,0,1-.389-.254.321.321,0,0,1,.245-.389l4.159-.913a.321.321,0,0,1,.389.245.274.274,0,0,1,0,.144A.493.493,0,0,1,336.222,205.9Z" transform="translate(-195.618 -143.353)" fill="#f8f8f8"/>
      <path id="Path_8995" data-name="Path 8995" d="M346.672,210.445l-4.818,1.065h-.042a.285.285,0,0,1-.2,0,.3.3,0,0,1-.136-.423l3.736-7.548h0a.3.3,0,0,1,.423-.127.392.392,0,0,1,.135.127.3.3,0,0,0,0,.051h0l1.353,6.1.592-.135a.316.316,0,1,1,.135.617l-.592.127.33,1.53a.314.314,0,0,1-.245.372.3.3,0,0,1-.372-.237Zm-.135-.617-1.158-5.207-3.051,6.145Z" transform="translate(-197.158 -143.043)" fill="#f8f8f8"/>
      <path id="Path_8996" data-name="Path 8996" d="M351.812,210.285a.322.322,0,0,1-.093-.448.338.338,0,0,1,.456-.1,2.426,2.426,0,0,0,1.826.321,2.451,2.451,0,0,0,1.851-2.908,2.426,2.426,0,0,0-4.421-.778.321.321,0,0,1-.448.1.341.341,0,0,1-.1-.084h0a.284.284,0,0,1,0-.1.185.185,0,0,0,0-.068l-.364-3.677a.351.351,0,0,1,.262-.38l4.15-.913a.324.324,0,0,1,.135.634l-3.872.845.262,2.713a3.084,3.084,0,0,1,1.429-.735,2.991,2.991,0,0,1,2.316.406,2.959,2.959,0,0,1,1.344,1.944,3.052,3.052,0,0,1-.4,2.324,3.2,3.2,0,0,1-1.944,1.352A3.1,3.1,0,0,1,351.812,210.285Z" transform="translate(-198.564 -142.713)" fill="#f8f8f8"/>
      <path id="Path_8997" data-name="Path 8997" d="M360.439,202.048a3.7,3.7,0,0,1,2.688-2.62.313.313,0,0,1,.381.22.347.347,0,0,1-.237.406,3.069,3.069,0,0,0-2.232,2.181,6,6,0,0,0-.245,1.927,2.976,2.976,0,0,1,1.978-1.5,3.009,3.009,0,1,1-2.265,3.694,4.3,4.3,0,0,1-.153-.583A7.541,7.541,0,0,1,360.439,202.048Zm.685,4.116a.457.457,0,0,0,.059.161.193.193,0,0,1,0,.093,2.4,2.4,0,1,0-.084-.3Z" transform="translate(-200.056 -142.431)" fill="#f8f8f8"/>
      <rect id="Rectangle_4230" data-name="Rectangle 4230" width="79.482" height="3.905" transform="matrix(0.976, -0.216, 0.216, 0.976, 32.505, 111.219)" fill="#a6a6a6"/>
      <rect id="Rectangle_4231" data-name="Rectangle 4231" width="56.27" height="3.905" transform="matrix(0.976, -0.216, 0.216, 0.976, 34.377, 119.684)" fill="#a6a6a6"/>
      <rect id="Rectangle_4232" data-name="Rectangle 4232" width="39.635" height="3.905" transform="matrix(0.976, -0.216, 0.216, 0.976, 85.449, 32.585)" fill="#a6a6a6"/>
      <rect id="Rectangle_4233" data-name="Rectangle 4233" width="176.934" height="51.79" transform="translate(13.136 102.254)" fill="#ffc727"/>
      <rect id="Rectangle_4234" data-name="Rectangle 4234" width="176.934" height="51.79" transform="translate(13.136 102.254)" opacity="0.3"/>
      <path id="Path_8998" data-name="Path 8998" d="M359.175,249.825l.245,93.589a9.484,9.484,0,0,1-9.442,9.5l-148.44.381a9.46,9.46,0,0,1-9.484-9.45L191.81,250.3a8.808,8.808,0,0,1,8.791-8.833L350.334,241a8.816,8.816,0,0,1,8.842,8.825Z" transform="translate(-174.008 -148.864)" fill="#dbdbdb"/>
      <path id="Path_8999" data-name="Path 8999" d="M358.33,345.039a8.715,8.715,0,1,1-8.74-8.689A8.715,8.715,0,0,1,358.33,345.039Z" transform="translate(-197.076 -163.617)" fill="#a6a6a6"/>
      <path id="Path_9000" data-name="Path 9000" d="M371.02,345a8.715,8.715,0,1,1-8.74-8.689A8.715,8.715,0,0,1,371.02,345Z" transform="translate(-199.039 -163.611)" fill="#ffc727"/>
      <rect id="Rectangle_4235" data-name="Rectangle 4235" width="31.419" height="21.715" rx="4.2" transform="translate(31.886 108.613) rotate(-0.15)" fill="#ffc727"/>
      <path id="Path_9001" data-name="Path 9001" d="M363.305,271.994l-14.218.042a5.918,5.918,0,0,1-5.968-5.917h0a5.917,5.917,0,0,1,5.917-5.968l14.218-.042a5.917,5.917,0,0,1,5.968,5.917h0a5.917,5.917,0,0,1-5.917,5.968Z" transform="translate(-197.419 -151.821)" fill="#fff"/>
      <path id="Path_9002" data-name="Path 9002" d="M206.907,309.439l-1.285.76a.329.329,0,0,1-.152.051.313.313,0,0,1-.279-.152.3.3,0,0,1,.118-.431l1.758-1.073a.321.321,0,0,1,.423.118.33.33,0,0,1,.042.237v8.368a.313.313,0,0,1-.313.313.321.321,0,0,1-.313-.313Z" transform="translate(-176.072 -159.317)" fill="#f8f8f8"/>
      <path id="Path_9003" data-name="Path 9003" d="M210.623,317.056l4.226-3.854a2.346,2.346,0,1,0-3.161-3.466l-.439.406a.3.3,0,0,1-.448,0,.3.3,0,0,1,0-.44l.439-.414a3.026,3.026,0,0,1,2.012-.777,2.906,2.906,0,0,1,2.189.972,2.874,2.874,0,0,1,.786,1.995,2.993,2.993,0,0,1-.964,2.214l-3.643,3.3H216a.321.321,0,0,1,0,.642h-5.123a.288.288,0,0,1-.237-.093.338.338,0,0,1-.017-.482Z" transform="translate(-176.905 -159.31)" fill="#f8f8f8"/>
      <path id="Path_9004" data-name="Path 9004" d="M225.269,309.033l-2.35,2.417a3.086,3.086,0,0,1,1.564,5.207,3.1,3.1,0,0,1-2.189.913,3.042,3.042,0,0,1-2.172-.9.3.3,0,0,1,0-.457.322.322,0,0,1,.456,0,2.45,2.45,0,0,0,1.691.7,2.535,2.535,0,0,0,1.691-.71,2.439,2.439,0,0,0-1.733-4.159.363.363,0,0,1-.262-.135h0a.321.321,0,0,1,0-.465l2.257-2.342H220.73a.33.33,0,0,1,0-.651h4.226a.321.321,0,0,1,.321.321.246.246,0,0,1,0,.144A.346.346,0,0,1,225.269,309.033Z" transform="translate(-178.373 -159.3)" fill="#f8f8f8"/>
      <path id="Path_9005" data-name="Path 9005" d="M234.339,315.682H229.4a.272.272,0,0,1-.195-.068.3.3,0,0,1-.042-.44l5.257-6.576h0a.3.3,0,0,1,.44-.042.385.385,0,0,1,.11.161v6.339h.617a.313.313,0,0,1,0,.626h-.617v1.564a.321.321,0,0,1-.634,0Zm0-.626v-5.334l-4.294,5.342Z" transform="translate(-179.776 -159.305)" fill="#f8f8f8"/>
      <path id="Path_9006" data-name="Path 9006" d="M248.786,316.632a.321.321,0,0,1,0-.456.338.338,0,0,1,.473,0,2.452,2.452,0,0,0,1.69.7,2.411,2.411,0,0,0,1.691-.727,2.358,2.358,0,0,0,.71-1.69,2.426,2.426,0,0,0-4.15-1.691.322.322,0,0,1-.456,0,.239.239,0,0,1-.084-.1h0a.226.226,0,0,1,0-.11.254.254,0,0,0,0-.059l.431-3.677a.279.279,0,0,1,.127-.237.32.32,0,0,1,.211-.076h4.226a.33.33,0,1,1,0,.651h-3.863l-.321,2.705a3.064,3.064,0,0,1,4.624,2.663,3.034,3.034,0,0,1-.845,2.189,3.221,3.221,0,0,1-2.189.9A3.086,3.086,0,0,1,248.786,316.632Z" transform="translate(-182.803 -159.309)" fill="#f8f8f8"/>
      <path id="Path_9007" data-name="Path 9007" d="M258.9,310.366a3.71,3.71,0,0,1,3.187-1.986.321.321,0,0,1,.33.3.347.347,0,0,1-.313.347,3.068,3.068,0,0,0-2.654,1.691,5.858,5.858,0,0,0-.643,1.826,2.992,2.992,0,1,1-.752,2.079,4.559,4.559,0,0,1,0-.592,7.558,7.558,0,0,1,.845-3.66Zm-.211,4.167a.889.889,0,0,0,0,.169.285.285,0,0,1,0,.093,2.4,2.4,0,1,0,0-.313Z" transform="translate(-184.257 -159.289)" fill="#f8f8f8"/>
      <path id="Path_9008" data-name="Path 9008" d="M268.877,317.027l3.381-8h-4.4a.321.321,0,0,1-.313-.313.313.313,0,0,1,.3-.313h4.818a.31.31,0,0,1,.195,0,.364.364,0,0,1,.177.195.5.5,0,0,1,0,.11.3.3,0,0,1-.051.169l-3.508,8.394a.321.321,0,0,1-.287.195.23.23,0,0,1-.127,0A.347.347,0,0,1,268.877,317.027Z" transform="translate(-185.727 -159.29)" fill="#f8f8f8"/>
      <path id="Path_9009" data-name="Path 9009" d="M279.2,308.32a1.9,1.9,0,0,1,1.911,1.885,1.936,1.936,0,0,1-.778,1.538,2.95,2.95,0,1,1-2.249,0,1.927,1.927,0,0,1-.76-1.538,1.876,1.876,0,0,1,1.876-1.885Zm0,8.453a1.718,1.718,0,1,0,.025.034Zm0-5.308a1.3,1.3,0,0,0,1.276-1.293,1.268,1.268,0,1,0-1.276,1.293Z" transform="translate(-187.075 -159.28)" fill="#f8f8f8"/>
      <path id="Path_9010" data-name="Path 9010" d="M298.359,308.264a3,3,0,0,1,3,2.646.163.163,0,0,0,0,.068v.786a7.51,7.51,0,0,1-.845,3.635,3.77,3.77,0,0,1-3.187,1.986h0a.313.313,0,0,1-.33-.3.338.338,0,0,1,.313-.338,3.086,3.086,0,0,0,2.655-1.691,5.589,5.589,0,0,0,.642-1.826,2.967,2.967,0,0,1-2.257,1.006,3,3,0,1,1,0-6Zm2.392,2.992a2.367,2.367,0,1,0-.7,1.685A2.384,2.384,0,0,0,300.751,311.256Z" transform="translate(-190.028 -159.266)" fill="#f8f8f8"/>
      <path id="Path_9011" data-name="Path 9011" d="M305.23,312.816a5.836,5.836,0,0,1,.845-3.2,2.587,2.587,0,0,1,4.557,0,6.156,6.156,0,0,1,0,6.365,2.536,2.536,0,0,1-4.557,0A5.732,5.732,0,0,1,305.23,312.816Zm.642,0a5.181,5.181,0,0,0,.77,2.823,1.936,1.936,0,0,0,3.491,0,5.461,5.461,0,0,0,0-5.646,1.936,1.936,0,0,0-3.483,0,5.071,5.071,0,0,0-.769,2.815Z" transform="translate(-191.556 -159.271)" fill="#f8f8f8"/>
      <path id="Path_9012" data-name="Path 9012" d="M317.347,309.157l-1.285.752a.34.34,0,0,1-.152.059.322.322,0,0,1-.279-.161.3.3,0,0,1,.118-.431l1.75-1.073a.33.33,0,0,1,.431.118.34.34,0,0,1,.042.237v8.368a.313.313,0,1,1-.625,0Z" transform="translate(-193.159 -159.272)" fill="#f8f8f8"/>
      <path id="Path_9013" data-name="Path 9013" d="M321.057,316.766l4.227-3.846a2.341,2.341,0,0,0-1.572-4.074,2.4,2.4,0,0,0-1.589.6l-.44.406a.3.3,0,0,1-.448,0,.3.3,0,0,1,0-.44l.44-.423a3.043,3.043,0,0,1,2.012-.769,2.979,2.979,0,0,1,2.012,5.173l-3.643,3.3h4.311a.321.321,0,0,1,0,.643h-5.122a.288.288,0,0,1-.237-.093A.347.347,0,0,1,321.057,316.766Z" transform="translate(-193.986 -159.265)" fill="#f8f8f8"/>
      <path id="Path_9014" data-name="Path 9014" d="M344.94,308.723l-2.35,2.426a3.087,3.087,0,0,1,1.564,5.207,3.069,3.069,0,0,1-4.362,0,.321.321,0,0,1,0-.456.313.313,0,0,1,.457,0,2.426,2.426,0,0,0,1.69.693,2.486,2.486,0,0,0,1.691-.7,2.452,2.452,0,0,0-1.691-4.167.3.3,0,0,1-.262-.127h0a.33.33,0,0,1,0-.465l2.257-2.341h-3.482a.325.325,0,1,1-.008-.651h4.226a.321.321,0,0,1,.329.321.245.245,0,0,1,0,.144A.183.183,0,0,1,344.94,308.723Z" transform="translate(-196.89 -159.253)" fill="#f8f8f8"/>
      <path id="Path_9015" data-name="Path 9015" d="M354.032,315.373h-4.97a.236.236,0,0,1-.194-.059.3.3,0,0,1-.042-.44l5.258-6.576h0a.3.3,0,0,1,.44-.042.462.462,0,0,1,.1.161v6.339h.609a.313.313,0,0,1,0,.626h-.609v1.564a.313.313,0,0,1-.321.313.321.321,0,0,1-.312-.313Zm0-.626v-5.334L349.7,314.79Z" transform="translate(-198.29 -159.258)" fill="#f8f8f8"/>
      <path id="Path_9016" data-name="Path 9016" d="M359.232,316.336a.322.322,0,0,1,0-.456.338.338,0,0,1,.473,0,2.426,2.426,0,0,0,3.432,0,2.406,2.406,0,1,0-3.406-3.4.3.3,0,0,1-.456,0,.2.2,0,0,1-.085-.1h0a.1.1,0,0,1,0-.042.2.2,0,0,1,0-.1v-.067l.431-3.677a.27.27,0,0,1,.127-.228.278.278,0,0,1,.211-.085h4.227a.33.33,0,1,1,0,.651h-3.964l-.321,2.713a3.069,3.069,0,0,1,4.624,2.655,3.034,3.034,0,0,1-.888,2.189,3.143,3.143,0,0,1-2.189.9A3.086,3.086,0,0,1,359.232,316.336Z" transform="translate(-199.897 -159.258)" fill="#f8f8f8"/>
      <path id="Path_9017" data-name="Path 9017" d="M369.344,310.085a3.7,3.7,0,0,1,3.187-1.995.321.321,0,0,1,.321.3.33.33,0,0,1-.3.338,3.085,3.085,0,0,0-2.654,1.69,6.082,6.082,0,0,0-.651,1.826,3,3,0,1,1-.744,2.088,4.734,4.734,0,0,1,0-.6A7.552,7.552,0,0,1,369.344,310.085Zm-.211,4.159a.848.848,0,0,0,0,.169.283.283,0,0,1,0,.093,2.4,2.4,0,1,0,0-.313Z" transform="translate(-201.344 -159.245)" fill="#f8f8f8"/>
      <rect id="Rectangle_4236" data-name="Rectangle 4236" width="79.482" height="3.905" transform="translate(32.065 173.936) rotate(-0.15)" fill="#a6a6a6"/>
      <rect id="Rectangle_4237" data-name="Rectangle 4237" width="56.27" height="3.905" transform="translate(32.08 182.617) rotate(-0.15)" fill="#a6a6a6"/>
      <rect id="Rectangle_4238" data-name="Rectangle 4238" width="39.635" height="3.905" transform="translate(100.564 108.425) rotate(-0.15)" fill="#a6a6a6"/>
      <rect id="Rectangle_4239" data-name="Rectangle 4239" width="176.934" height="86.717" transform="translate(13.136 118.855)" fill="#ffc727"/>
      <rect id="Rectangle_4240" data-name="Rectangle 4240" width="176.934" height="86.717" transform="translate(13.136 118.855)" opacity="0.2"/>
      <rect id="Rectangle_4241" data-name="Rectangle 4241" width="176.934" height="86.717" transform="translate(13.136 134.264)" fill="#ffc727"/>
      <rect id="Rectangle_4242" data-name="Rectangle 4242" width="176.934" height="86.717" transform="translate(13.136 134.264)" opacity="0.3"/>
      <rect id="Rectangle_4243" data-name="Rectangle 4243" width="176.934" height="70.834" transform="translate(13.136 150.156)" fill="#ffc727"/>
      <rect id="Rectangle_4244" data-name="Rectangle 4244" width="176.934" height="70.834" transform="translate(13.136 150.156)" opacity="0.2"/>
      <path id="Path_9018" data-name="Path 9018" d="M355.407,408.509l-184.347-26.2V231l5.917,4.379a19.755,19.755,0,0,0,9.712,3.8L355.407,257.2Z" transform="translate(-170.798 -147.317)" fill="#ffc727"/>
      <rect id="Rectangle_4245" data-name="Rectangle 4245" width="0.845" height="1.691" transform="translate(0 90.793) rotate(-51.97)" fill="#fff"/>
      <path id="Path_9019" data-name="Path 9019" d="M344.018,265.625l-3.381-.38.093-.845,3.381.38Zm-5.968-.668-3.381-.38.093-.845,3.381.38Zm-5.968-.668-3.381-.38.093-.845,3.381.389Zm-5.968-.668-3.381-.38.093-.845,3.381.38Zm-5.968-.668-3.381-.38.093-.845,3.381.38Zm-5.917-.668-3.381-.38.093-.845,3.381.38Zm-5.968-.659-3.381-.389.093-.845,3.381.38Zm-5.968-.668-3.381-.38.093-.845,3.381.38Zm-5.968-.668-3.381-.38.093-.845,3.381.38Zm-5.959-.668-3.381-.38.093-.845,3.381.38Zm-5.968-.668-3.381-.38.1-.845,3.381.38Zm-5.968-.668-3.381-.38.093-.845,3.381.38Zm-5.968-.668-3.381-.38.093-.845,3.381.38Zm-5.968-.659-3.381-.389.093-.845,3.381.38Zm-5.993-.634-3.381-.38.093-.845,3.381.38Zm-5.968-.668-3.381-.38.093-.845,3.381.38Zm-5.968-.668-3.381-.38.093-.845,3.381.389Zm-5.968-.668-3.381-.38.093-.845,3.381.38Zm-5.934-.7-3.381-.38.093-.845,3.381.38Zm-5.959-.668-3.381-.38.1-.845,3.381.38Zm-5.968-.659-3.381-.389.093-.845,3.381.38Zm-5.968-.668-3.381-.38.093-.845,3.381.38Zm-5.968-.668-3.381-.38.093-.845,3.381.38Zm-5.917-.668-3.381-.38.093-.845,3.381.38Zm-5.968-.668-3.381-.38.1-.845,3.381.38Zm-5.968-.668-3.381-.38.093-.845,3.381.38Zm-5.968-.668-2.029-.22c-.473-.059-.938-.127-1.4-.211l.152-.845c.448.076.9.144,1.344.194l2.029.228Zm-5.976-1.065a21.211,21.211,0,0,1-3.229-1.352l.4-.752a19.447,19.447,0,0,0,3.094,1.293Zm-5.511-2.73c-.279-.2-.558-.406-.845-.617l-1.9-1.488.516-.668,1.9,1.488c.262.2.532.4.8.592Z" transform="translate(-171.369 -148.976)" fill="#fff"/>
      <path id="Path_9020" data-name="Path 9020" d="M380.186,271.639h-.845v-1.31l-1.31-.152.093-.837,2.063.228Z" transform="translate(-202.82 -153.249)" fill="#fff"/>
      <path id="Path_9021" data-name="Path 9021" d="M380.425,404.256h-.845v-3.423h.845Zm0-5.993h-.845V394.84h.845Zm0-5.984h-.845v-3.423h.845Zm0-5.985h-.845v-3.423h.845Zm0-5.993h-.845V376.92h.845Zm0-5.985h-.845v-3.423h.845Zm0-5.984h-.845v-3.423h.845Zm0-5.993h-.845v-3.381h.845Zm0-5.985h-.845v-3.423h.845Zm0-5.985h-.845v-3.423h.845Zm0-5.984h-.845v-3.432h.845Zm0-5.993h-.845v-3.381h.845Zm0-5.985h-.845v-3.423h.845Zm0-5.985h-.845V323h.845Zm0-5.993h-.845v-3.381h.845Zm0-5.984h-.845v-3.423h.845Zm0-5.985h-.845v-3.423h.845Zm0-5.993h-.845v-3.381h.845Zm0-5.985h-.845V293.06h.845Zm0-5.984h-.845v-3.423h.845Zm0-5.985h-.845v-3.423h.845Zm0-5.993h-.845V275.14h.845Z" transform="translate(-203.06 -154.147)" fill="#fff"/>
      <path id="Path_9022" data-name="Path 9022" d="M380.184,433.1l-2.164-.321.127-.837,1.192.177v-1.2h.845Z" transform="translate(-202.819 -178.249)" fill="#fff"/>
      <path id="Path_9023" data-name="Path 9023" d="M344.056,428.1l-3.381-.5.118-.845,3.381.5Zm-5.917-.845-3.381-.5.127-.845,3.381.5Zm-5.917-.845-3.381-.5.127-.845,3.381.5Zm-5.917-.845-3.381-.5.127-.845,3.381.5Zm-5.917-.845-3.381-.5.118-.845,3.381.5Zm-5.917-.845-3.381-.5.118-.845,3.381.5Zm-5.917-.845-3.381-.5.127-.845,3.381.5Zm-5.917-.845-3.381-.5.127-.845,3.381.5Zm-5.917-.845-3.381-.5.127-.845,3.381.5Zm-5.917-.845-3.381-.5.127-.845,3.381.507Zm-5.917-.845-3.381-.5.118-.845,3.381.5Zm-5.917-.845-3.381-.5.126-.845,3.381.5Zm-5.917-.845-3.381-.5.127-.845,3.381.5Zm-5.917-.845-3.381-.5.127-.845,3.381.507Zm-5.917-.845-3.381-.5.127-.845,3.381.5Zm-5.917-.845-3.381-.5.118-.845,3.381.507Zm-5.917-.845-3.381-.5.118-.845,3.381.5Zm-5.917-.845-3.381-.5.127-.846,3.381.5Zm-5.917-.845-3.381-.5.127-.845,3.381.5Zm-5.917-.845-3.381-.5.127-.845,3.381.507Zm-5.917-.845-3.381-.5.118-.845,3.381.5Zm-5.917-.845-3.381-.5.127-.845,3.381.508Zm-5.917-.845-3.381-.5.127-.845,3.381.5Zm-5.917-.845-3.381-.5.127-.845,3.381.507Zm-5.917-.845-3.381-.5.127-.845,3.381.5Zm-5.917-.845-3.381-.5.118-.845,3.381.507Zm-5.917-.845-3.381-.5.127-.845,3.381.5Zm-5.917-.845-3.381-.5.127-.845,3.381.507Zm-5.917-.845-3.381-.5.127-.845,3.381.5Z" transform="translate(-171.408 -173.943)" fill="#fff"/>
      <rect id="Rectangle_4246" data-name="Rectangle 4246" width="0.846" height="1.693" transform="translate(0.932 229.45) rotate(-81.384)" fill="#fff"/>
      <ellipse id="Ellipse_336" data-name="Ellipse 336" cx="7.345" cy="8.368" rx="7.345" ry="8.368" transform="translate(153.494 176.266)" fill="#ebebeb"/>
      <path id="Path_9024" data-name="Path 9024" d="M363.823,349.718a3.449,3.449,0,1,1-3.424-3.888A3.678,3.678,0,0,1,363.823,349.718Z" transform="translate(-199.559 -165.084)" fill="#dbdbdb"/>
    </g>
    <g id="freepik--Coins--inject-18" transform="translate(54.083 54.78)">
      <path id="Path_9025" data-name="Path 9025" d="M335.418,392.663c35.045,6.289,25.789,58.2-9.3,51.9S300.322,386.366,335.418,392.663Z" transform="translate(-94.913 -106.975)" fill="#ffc727"/>
      <path id="Path_9026" data-name="Path 9026" d="M335.418,392.663c35.045,6.289,25.789,58.2-9.3,51.9S300.322,386.366,335.418,392.663Z" transform="translate(-94.913 -106.975)" opacity="0.2"/>
      <path id="Path_9027" data-name="Path 9027" d="M331.75,391.973c33.4,5.993,24.133,57.9-9.3,51.9S298.294,386,331.75,391.973Z" transform="translate(-94.534 -106.877)" fill="#ffc727"/>
      <path id="Path_9028" data-name="Path 9028" d="M331.75,391.973c33.4,5.993,24.133,57.9-9.3,51.9S298.294,386,331.75,391.973Z" transform="translate(-94.534 -106.877)" opacity="0.1"/>
      <path id="Path_9029" data-name="Path 9029" d="M306.71,420.017c.178,9.247,5.562,18.208,17.32,20.286,27.759,4.988,35.443-38.1,7.726-43.109-.178,0-.355-.068-.541-.085,25.992,5.2,18.537,45.975-7.929,41.224C312.492,436.458,307.285,428.478,306.71,420.017Z" transform="translate(-95.333 -107.745)" opacity="0.1"/>
      <g id="Group_7727" data-name="Group 7727" transform="translate(220.431 294.844)" opacity="0.1">
        <path id="Path_9030" data-name="Path 9030" d="M332.433,403.641a.887.887,0,0,1,.642,1.065l-.355,1.429a12.027,12.027,0,0,1,5.722,4.074,1.015,1.015,0,0,1,.288.947.931.931,0,0,1-1.142.651.846.846,0,0,1-.583-.406,10.429,10.429,0,0,0-4.767-3.643l-2.494,9.966c5.131,2.493,6.906,5.072,6.035,8.58-.946,3.779-4.784,5.655-9.3,4.691l-.693,2.772a.871.871,0,0,1-1.691-.423l.7-2.815a13.813,13.813,0,0,1-7.151-5.452.93.93,0,1,1,1.488-1.107,11.878,11.878,0,0,0,6.136,4.979l2.536-10.144c-5.072-2.536-6.762-5.021-5.917-8.58s4.717-5.562,9.087-4.581l.338-1.352a.846.846,0,0,1,1.116-.651Zm-4.159,13.339,2.426-9.721c-3.474-.794-6.264.7-6.906,3.271C323.194,412.948,323.954,414.731,328.273,416.98Zm1.023,2.536-2.451,9.831c3.584.845,6.416-.668,7.092-3.381.609-2.426-.262-4.235-4.64-6.424Z" transform="translate(-317.422 -403.592)"/>
      </g>
      <path id="Path_9031" data-name="Path 9031" d="M235.62,54.78c-35.155,0-35.214,50,0,50S270.834,54.78,235.62,54.78Z" transform="translate(-80.251 -54.78)" fill="#ffc727"/>
      <path id="Path_9032" data-name="Path 9032" d="M235.62,54.78c-35.155,0-35.214,50,0,50S270.834,54.78,235.62,54.78Z" transform="translate(-80.251 -54.78)" opacity="0.1"/>
      <path id="Path_9033" data-name="Path 9033" d="M257.818,85.245c-1.877,8.6-9,16.06-21.386,16.06-29.221,0-29.171-41.495,0-41.495h.575c-27.455.507-27.319,39.8.541,39.8C248.917,99.623,255.688,93.046,257.818,85.245Z" transform="translate(-81.072 -55.558)" opacity="0.1"/>
      <g id="Group_7728" data-name="Group 7728" transform="translate(145.682 9.72)" opacity="0.1">
        <path id="Path_9034" data-name="Path 9034" d="M238.888,66.28a.9.9,0,0,1,.913.845V68.52a13,13,0,0,1,6.762,2.434.974.974,0,0,1,.532.845.946.946,0,0,1-.989.845,1.006,1.006,0,0,1-.685-.245,11.4,11.4,0,0,0-5.706-2.265v9.721c5.782,1.116,8.216,3.094,8.216,6.509,0,3.685-3.381,6.3-8.14,6.441v2.713a.913.913,0,1,1-1.826,0V92.762a14.928,14.928,0,0,1-8.563-3.381.888.888,0,0,1-.414-.727.946.946,0,0,1,.947-.845.964.964,0,0,1,.685.245,12.822,12.822,0,0,0,7.422,3.161V81.258c-5.706-1.15-8.064-3.068-8.064-6.542s3.381-6.2,7.988-6.3v-1.3A.887.887,0,0,1,238.888,66.28Zm-.845,13.229v-9.5c-3.694.068-6.128,2.088-6.128,4.59.009,2.367,1.226,3.829,6.137,4.911Zm1.69,2.122v9.6c3.8-.068,6.272-2.088,6.272-4.734-.008-2.4-1.336-3.863-6.28-4.869Z" transform="translate(-228.99 -66.279)"/>
      </g>
      <path id="Path_9035" data-name="Path 9035" d="M81.354,158.179c25.6,4.6,18.833,42.509-6.762,37.911S55.717,153.581,81.354,158.179Z" transform="translate(-56.92 -70.718)" fill="#ffc727"/>
      <path id="Path_9036" data-name="Path 9036" d="M81.354,158.179c25.6,4.6,18.833,42.509-6.762,37.911S55.717,153.581,81.354,158.179Z" transform="translate(-56.92 -70.718)" opacity="0.2"/>
      <path id="Path_9037" data-name="Path 9037" d="M78.677,157.676c24.386,4.379,17.624,42.264-6.762,37.911S54.24,153.3,78.677,157.676Z" transform="translate(-56.643 -70.646)" fill="#ffc727"/>
      <path id="Path_9038" data-name="Path 9038" d="M78.677,157.676c24.386,4.379,17.624,42.264-6.762,37.911S54.24,153.3,78.677,157.676Z" transform="translate(-56.643 -70.646)" opacity="0.1"/>
      <path id="Path_9039" data-name="Path 9039" d="M60.38,178.166c.135,6.762,4.066,13.3,12.679,14.843,20.287,3.635,25.882-27.835,5.646-31.461l-.4-.068c18.977,3.8,13.524,33.583-5.79,30.109A14.078,14.078,0,0,1,60.38,178.166Z" transform="translate(-57.221 -71.289)" opacity="0.1"/>
      <g id="Group_7729" data-name="Group 7729" transform="translate(10.002 93.006)" opacity="0.1">
        <path id="Path_9040" data-name="Path 9040" d="M78.538,164.827a.651.651,0,0,1,.516.744l-.194,1.091a8.765,8.765,0,0,1,4.345,2.722.735.735,0,0,1,.254.676.676.676,0,0,1-.845.524.618.618,0,0,1-.44-.27,7.743,7.743,0,0,0-3.635-2.451l-1.378,7.379c3.846,1.6,5.258,3.381,4.776,5.993-.524,2.8-3.237,4.336-6.551,3.829L75,187.117a.645.645,0,1,1-1.268-.237l.389-2.079a10.144,10.144,0,0,1-5.452-3.669.668.668,0,0,1-.186-.6.7.7,0,0,1,.778-.541.659.659,0,0,1,.439.271,8.674,8.674,0,0,0,4.691,3.381l1.4-7.506c-3.8-1.606-5.156-3.381-4.666-6s3.2-4.226,6.424-3.736l.186-1a.651.651,0,0,1,.795-.575ZM76.1,174.734l1.336-7.227c-2.536-.431-4.539.786-4.894,2.688S72.841,173.28,76.1,174.734Zm.845,1.826-1.352,7.269c2.646.44,4.641-.769,5.021-2.772.347-1.817-.372-3.1-3.66-4.5Z" transform="translate(-68.476 -164.81)"/>
      </g>
    </g>
  </g>
</svg>
